<svg id="About_icon" data-name="About icon" xmlns="http://www.w3.org/2000/svg" width="810.714" height="508.02" viewBox="0 0 810.714 508.02">
  <g id="aboutme_icon_secondshelf">
    <g id="Group_12" data-name="Group 12">
      <path id="Path_144" data-name="Path 144" d="M689.417,384.369a151.058,151.058,0,0,1,12.5-47.674q2.821-6.3,6.211-12.329a.921.921,0,0,0-1.589-.929A153.144,153.144,0,0,0,689.5,370.449q-1.28,6.911-1.923,13.919c-.109,1.179,1.732,1.171,1.84,0Z" transform="translate(-173.824 -224.178)" fill="#e6e6e6"/>
      <circle id="Ellipse_15" data-name="Ellipse 15" cx="11.653" cy="11.653" r="11.653" transform="translate(527.11 79.834)" fill="#09f"/>
      <path id="Path_145" data-name="Path 145" d="M690.256,380.479a98,98,0,0,1,8.11-30.928q1.83-4.089,4.029-8a.6.6,0,0,0-1.031-.6,99.35,99.35,0,0,0-11.055,30.5q-.83,4.484-1.248,9.03C688.991,381.243,690.185,381.239,690.256,380.479Z" transform="translate(-173.471 -219.979)" fill="#e6e6e6"/>
      <circle id="Ellipse_16" data-name="Ellipse 16" cx="7.56" cy="7.56" r="7.56" transform="translate(524.257 108.369)" fill="#09f"/>
      <path id="Path_146" data-name="Path 146" d="M691.8,379.682a98,98,0,0,1-12.628-29.375q-1.072-4.35-1.742-8.785a.6.6,0,0,0-1.183.159,99.349,99.349,0,0,0,10.042,30.847q2.1,4.046,4.57,7.887C691.27,381.062,692.209,380.324,691.8,379.682Z" transform="translate(-176.518 -219.895)" fill="#e6e6e6"/>
      <circle id="Ellipse_17" data-name="Ellipse 17" cx="7.56" cy="7.56" r="7.56" transform="translate(492.156 107.838)" fill="#09f"/>
      <path id="Path_147" data-name="Path 147" d="M670.059,381.583V366.73a5.576,5.576,0,0,1,5.57-5.57h34.656a5.576,5.576,0,0,1,5.57,5.57v14.853a5.576,5.576,0,0,1-5.57,5.57H675.629a5.576,5.576,0,0,1-5.57-5.57Z" transform="translate(-177.988 -215.108)" fill="#f2f2f2"/>
    </g>
    <path id="Path_151" data-name="Path 151" d="M781.482,395.948H766.629a5.576,5.576,0,0,1-5.57-5.57V329.73a5.576,5.576,0,0,1,5.57-5.57h14.853a5.576,5.576,0,0,1,5.57,5.57v60.649a5.576,5.576,0,0,1-5.57,5.57Z" transform="translate(-156.354 -223.904)" fill="#f2f2f2"/>
    <rect id="Rectangle_67" data-name="Rectangle 67" width="24.755" height="4.951" transform="translate(605.324 112.015)" fill="#09f"/>
    <rect id="Rectangle_68" data-name="Rectangle 68" width="24.755" height="4.951" transform="translate(605.324 150.384)" fill="#09f"/>
    <path id="Path_152" data-name="Path 152" d="M811.482,395.948H796.629a5.576,5.576,0,0,1-5.57-5.57V329.73a5.576,5.576,0,0,1,5.57-5.57h14.853a5.576,5.576,0,0,1,5.57,5.57v60.649a5.576,5.576,0,0,1-5.57,5.57Z" transform="translate(-149.222 -223.904)" fill="#f2f2f2"/>
    <rect id="Rectangle_69" data-name="Rectangle 69" width="24.755" height="4.951" transform="translate(642.456 112.015)" fill="#09f"/>
    <rect id="Rectangle_70" data-name="Rectangle 70" width="24.755" height="4.951" transform="translate(642.456 150.384)" fill="#09f"/>
    <path id="Path_153" data-name="Path 153" d="M841.482,395.948H826.629a5.576,5.576,0,0,1-5.57-5.57V329.73a5.576,5.576,0,0,1,5.57-5.57h14.853a5.576,5.576,0,0,1,5.57,5.57v60.649a5.576,5.576,0,0,1-5.57,5.57Z" transform="translate(-142.09 -223.904)" fill="#f2f2f2"/>
    <rect id="Rectangle_71" data-name="Rectangle 71" width="24.755" height="4.951" transform="translate(679.588 112.015)" fill="#09f"/>
    <rect id="Rectangle_72" data-name="Rectangle 72" width="24.755" height="4.951" transform="translate(679.588 150.384)" fill="#09f"/>
  </g>
  <g id="aboutme_icon_thirdshelf">
    <path id="Path_148" data-name="Path 148" d="M705.482,314.948H690.629a5.576,5.576,0,0,1-5.57-5.57V248.73a5.576,5.576,0,0,1,5.57-5.57h14.853a5.576,5.576,0,0,1,5.57,5.57v60.649a5.576,5.576,0,0,1-5.57,5.57Z" transform="translate(-174.422 -243.16)" fill="#f2f2f2"/>
    <rect id="Rectangle_61" data-name="Rectangle 61" width="24.755" height="4.951" transform="translate(511.256 11.758)" fill="#09f"/>
    <rect id="Rectangle_62" data-name="Rectangle 62" width="24.755" height="4.951" transform="translate(511.256 50.128)" fill="#09f"/>
    <path id="Path_149" data-name="Path 149" d="M735.482,314.948H720.629a5.576,5.576,0,0,1-5.57-5.57V248.73a5.576,5.576,0,0,1,5.57-5.57h14.853a5.576,5.576,0,0,1,5.57,5.57v60.649a5.576,5.576,0,0,1-5.57,5.57Z" transform="translate(-167.29 -243.16)" fill="#f2f2f2"/>
    <rect id="Rectangle_63" data-name="Rectangle 63" width="24.755" height="4.951" transform="translate(548.388 11.758)" fill="#09f"/>
    <rect id="Rectangle_64" data-name="Rectangle 64" width="24.755" height="4.951" transform="translate(548.388 50.128)" fill="#09f"/>
    <path id="Path_150" data-name="Path 150" d="M765.482,314.948H750.629a5.576,5.576,0,0,1-5.57-5.57V248.73a5.576,5.576,0,0,1,5.57-5.57h14.853a5.576,5.576,0,0,1,5.57,5.57v60.649a5.576,5.576,0,0,1-5.57,5.57Z" transform="translate(-160.158 -243.16)" fill="#f2f2f2"/>
    <rect id="Rectangle_65" data-name="Rectangle 65" width="24.755" height="4.951" transform="translate(585.52 11.758)" fill="#09f"/>
    <rect id="Rectangle_66" data-name="Rectangle 66" width="24.755" height="4.951" transform="translate(585.52 50.128)" fill="#09f"/>
    <path id="Path_157" data-name="Path 157" d="M795.482,314.948H780.629a5.576,5.576,0,0,1-5.57-5.57V248.73a5.576,5.576,0,0,1,5.57-5.57h14.853a5.576,5.576,0,0,1,5.57,5.57v60.649A5.576,5.576,0,0,1,795.482,314.948Z" transform="translate(-153.026 -243.16)" fill="#f2f2f2"/>
    <rect id="Rectangle_79" data-name="Rectangle 79" width="24.755" height="4.951" transform="translate(622.652 11.758)" fill="#09f"/>
    <rect id="Rectangle_80" data-name="Rectangle 80" width="24.755" height="4.951" transform="translate(622.652 50.128)" fill="#09f"/>
    <path id="Path_158" data-name="Path 158" d="M825.482,314.948H810.629a5.576,5.576,0,0,1-5.57-5.57V248.73a5.576,5.576,0,0,1,5.57-5.57h14.853a5.576,5.576,0,0,1,5.57,5.57v60.649A5.576,5.576,0,0,1,825.482,314.948Z" transform="translate(-145.894 -243.16)" fill="#f2f2f2"/>
    <rect id="Rectangle_81" data-name="Rectangle 81" width="24.755" height="4.951" transform="translate(659.784 11.758)" fill="#09f"/>
    <rect id="Rectangle_82" data-name="Rectangle 82" width="24.755" height="4.951" transform="translate(659.784 50.128)" fill="#09f"/>
    <path id="Path_159" data-name="Path 159" d="M855.482,314.948H840.629a5.576,5.576,0,0,1-5.57-5.57V248.73a5.576,5.576,0,0,1,5.57-5.57h14.853a5.576,5.576,0,0,1,5.57,5.57v60.649A5.576,5.576,0,0,1,855.482,314.948Z" transform="translate(-138.762 -243.16)" fill="#f2f2f2"/>
    <rect id="Rectangle_83" data-name="Rectangle 83" width="24.755" height="4.951" transform="translate(696.916 11.758)" fill="#09f"/>
    <rect id="Rectangle_84" data-name="Rectangle 84" width="24.755" height="4.951" transform="translate(696.916 50.128)" fill="#09f"/>
    <path id="Path_160" data-name="Path 160" d="M885.482,314.948H870.629a5.576,5.576,0,0,1-5.57-5.57V248.73a5.576,5.576,0,0,1,5.57-5.57h14.853a5.576,5.576,0,0,1,5.57,5.57v60.649A5.576,5.576,0,0,1,885.482,314.948Z" transform="translate(-131.63 -243.16)" fill="#f2f2f2"/>
    <rect id="Rectangle_85" data-name="Rectangle 85" width="24.755" height="4.951" transform="translate(734.048 11.758)" fill="#09f"/>
    <rect id="Rectangle_86" data-name="Rectangle 86" width="24.755" height="4.951" transform="translate(734.048 50.128)" fill="#09f"/>
  </g>
  <g id="aboutme_icon_shelfs">
    <path id="Path_161" data-name="Path 161" d="M994.491,303.135H641.738a1.238,1.238,0,0,1,0-2.475H994.491a1.238,1.238,0,0,1,0,2.475Z" transform="translate(-185.015 -229.491)" fill="#3f3d56"/>
    <path id="Path_162" data-name="Path 162" d="M994.491,384.135H641.738a1.238,1.238,0,1,1,0-2.475H994.491a1.238,1.238,0,0,1,0,2.475Z" transform="translate(-185.015 -210.234)" fill="#3f3d56"/>
    <path id="Path_163" data-name="Path 163" d="M994.491,465.135H641.738a1.238,1.238,0,1,1,0-2.475H994.491a1.238,1.238,0,0,1,0,2.475Z" transform="translate(-185.015 -190.978)" fill="#3f3d56"/>
  </g>
  <g id="aboutme_icon_firstshelf">
    <path id="Path_154" data-name="Path 154" d="M702.482,476.948H687.629a5.576,5.576,0,0,1-5.57-5.57V410.73a5.576,5.576,0,0,1,5.57-5.57h14.853a5.576,5.576,0,0,1,5.57,5.57v60.649a5.576,5.576,0,0,1-5.57,5.57Z" transform="translate(-175.135 -204.647)" fill="#f2f2f2"/>
    <rect id="Rectangle_73" data-name="Rectangle 73" width="24.755" height="4.951" transform="translate(507.543 212.271)" fill="#09f"/>
    <rect id="Rectangle_74" data-name="Rectangle 74" width="24.755" height="4.951" transform="translate(507.543 250.641)" fill="#09f"/>
    <path id="Path_155" data-name="Path 155" d="M732.482,476.948H717.629a5.576,5.576,0,0,1-5.57-5.57V410.73a5.576,5.576,0,0,1,5.57-5.57h14.853a5.576,5.576,0,0,1,5.57,5.57v60.649a5.576,5.576,0,0,1-5.57,5.57Z" transform="translate(-168.003 -204.647)" fill="#f2f2f2"/>
    <rect id="Rectangle_75" data-name="Rectangle 75" width="24.755" height="4.951" transform="translate(544.675 212.271)" fill="#09f"/>
    <rect id="Rectangle_76" data-name="Rectangle 76" width="24.755" height="4.951" transform="translate(544.675 250.641)" fill="#09f"/>
    <path id="Path_156" data-name="Path 156" d="M762.482,476.948H747.629a5.576,5.576,0,0,1-5.57-5.57V410.73a5.576,5.576,0,0,1,5.57-5.57h14.853a5.576,5.576,0,0,1,5.57,5.57v60.649a5.576,5.576,0,0,1-5.57,5.57Z" transform="translate(-160.871 -204.647)" fill="#f2f2f2"/>
    <rect id="Rectangle_77" data-name="Rectangle 77" width="24.755" height="4.951" transform="translate(581.807 212.271)" fill="#09f"/>
    <rect id="Rectangle_78" data-name="Rectangle 78" width="24.755" height="4.951" transform="translate(581.807 250.641)" fill="#09f"/>
    <path id="Path_164" data-name="Path 164" d="M854.417,465.369a151.051,151.051,0,0,1,12.5-47.674q2.821-6.3,6.211-12.329a.921.921,0,0,0-1.589-.929A153.141,153.141,0,0,0,854.5,451.449q-1.28,6.911-1.923,13.919c-.109,1.179,1.731,1.171,1.84,0Z" transform="translate(-134.598 -204.922)" fill="#e6e6e6"/>
    <circle id="Ellipse_18" data-name="Ellipse 18" cx="11.653" cy="11.653" r="11.653" transform="translate(731.336 180.089)" fill="#09f"/>
    <path id="Path_165" data-name="Path 165" d="M855.256,461.479a98,98,0,0,1,8.11-30.928q1.831-4.089,4.029-8a.6.6,0,0,0-1.031-.6,99.349,99.349,0,0,0-11.055,30.5q-.83,4.484-1.248,9.03C853.992,462.243,855.185,462.239,855.256,461.479Z" transform="translate(-134.245 -200.723)" fill="#e6e6e6"/>
    <circle id="Ellipse_19" data-name="Ellipse 19" cx="7.56" cy="7.56" r="7.56" transform="translate(728.482 208.625)" fill="#09f"/>
    <path id="Path_166" data-name="Path 166" d="M856.8,460.682a98,98,0,0,1-12.628-29.375q-1.072-4.35-1.742-8.785a.6.6,0,0,0-1.183.159,99.349,99.349,0,0,0,10.042,30.847q2.1,4.046,4.57,7.887c.415.646,1.353-.092.941-.734Z" transform="translate(-137.292 -200.639)" fill="#e6e6e6"/>
    <circle id="Ellipse_20" data-name="Ellipse 20" cx="7.56" cy="7.56" r="7.56" transform="translate(696.382 208.094)" fill="#09f"/>
    <path id="Path_167" data-name="Path 167" d="M835.059,462.583V447.73a5.576,5.576,0,0,1,5.57-5.57h34.656a5.576,5.576,0,0,1,5.57,5.57v14.853a5.576,5.576,0,0,1-5.57,5.57H840.629A5.576,5.576,0,0,1,835.059,462.583Z" transform="translate(-138.762 -195.852)" fill="#f2f2f2"/>
  </g>
  <g id="aboutme_icon_floor">
    <path id="Path_168" data-name="Path 168" d="M745.313,607.135H273.738a1.238,1.238,0,0,1,0-2.475H745.313a1.238,1.238,0,1,1,0,2.475Z" transform="translate(-272.5 -157.22)" fill="#3f3d56"/>
    <path id="Path_183" data-name="Path 183" d="M305.516,606.765a151.056,151.056,0,0,1,12.5-47.675q2.821-6.3,6.211-12.329a.921.921,0,0,0-1.589-.929A153.144,153.144,0,0,0,305.6,592.844q-1.279,6.911-1.923,13.919c-.109,1.178,1.731,1.171,1.84,0Z" transform="translate(-265.089 -171.308)" fill="#e6e6e6"/>
    <circle id="Ellipse_24" data-name="Ellipse 24" cx="11.653" cy="11.653" r="11.653" transform="translate(51.944 355.1)" fill="#09f"/>
    <path id="Path_184" data-name="Path 184" d="M306.355,602.875a98,98,0,0,1,8.11-30.928q1.83-4.089,4.029-8a.6.6,0,0,0-1.031-.6,99.35,99.35,0,0,0-11.055,30.5q-.83,4.483-1.248,9.03C305.09,603.639,306.285,603.635,306.355,602.875Z" transform="translate(-264.736 -167.108)" fill="#e6e6e6"/>
    <circle id="Ellipse_25" data-name="Ellipse 25" cx="7.56" cy="7.56" r="7.56" transform="translate(49.091 383.636)" fill="#09f"/>
    <path id="Path_185" data-name="Path 185" d="M307.9,602.077A98,98,0,0,1,295.268,572.7q-1.072-4.35-1.742-8.785a.6.6,0,0,0-1.183.159,99.35,99.35,0,0,0,10.042,30.847q2.1,4.046,4.57,7.888C307.369,603.457,308.308,602.719,307.9,602.077Z" transform="translate(-267.784 -167.024)" fill="#e6e6e6"/>
    <circle id="Ellipse_26" data-name="Ellipse 26" cx="7.56" cy="7.56" r="7.56" transform="translate(16.991 383.104)" fill="#09f"/>
    <path id="Path_186" data-name="Path 186" d="M286.159,603.979V589.126a5.576,5.576,0,0,1,5.57-5.57h34.656a5.576,5.576,0,0,1,5.57,5.57v14.853a5.576,5.576,0,0,1-5.57,5.57H291.729a5.576,5.576,0,0,1-5.57-5.57Z" transform="translate(-269.253 -162.237)" fill="#f2f2f2"/>
  </g>
  <g id="aboutme_icon_human" transform="translate(-12 -4)">
    <path id="Path_170" data-name="Path 170" d="M18.426,0H47.691V18.426H0A18.426,18.426,0,0,1,18.426,0Z" transform="translate(216.359 442.268) rotate(86.655)" fill="#2f2e41"/>
    <path id="Path_173" data-name="Path 173" d="M445.172,578.584l-6.584,31.041a4.951,4.951,0,0,0,4.763,5.978l64.731,1.044a4.951,4.951,0,0,0,4.955-5.811l-5.662-32.085a4.951,4.951,0,0,0-4.876-4.091H450.016A4.951,4.951,0,0,0,445.172,578.584Z" transform="translate(-233.041 -146.352)" fill="#2f2e41"/>
    <circle id="Ellipse_21" data-name="Ellipse 21" cx="33.419" cy="33.419" r="33.419" transform="translate(212.963 220.935)" fill="#2f2e41"/>
    <path id="Path_169" data-name="Path 169" d="M173.575,383.776l-.885-15.147L230.7,358,232,380.361Z" transform="translate(41.054 85.109)" fill="#ffb8b8"/>
    <path id="Path_171" data-name="Path 171" d="M205.205,385.852l-9.636,11.723-49.8-31.586,14.22-17.3Z" transform="translate(34.654 82.894)" fill="#ffb8b8"/>
    <path id="Path_172" data-name="Path 172" d="M18.426,0H47.691V18.426H0A18.426,18.426,0,0,1,18.426,0Z" transform="matrix(0.635, -0.773, 0.773, 0.635, 208.294, 500.32)" fill="#2f2e41"/>
    <path id="Path_174" data-name="Path 174" d="M467.726,591.409s-63.124-39.607-75.5-18.566c-6.189,10.521-3.094,20.732,1.547,28.313A42.864,42.864,0,0,0,411.6,617.112l51.177,25.044,18.566-19.8-12.377-11.14Z" transform="translate(-244.862 -166.249)" fill="#2f2e41"/>
    <path id="Path_175" data-name="Path 175" d="M481.887,582.851s81.69-23.517,65.6,21.041-76.739,27.23-76.739,27.23l-6.189-18.566L485.6,597.7Z" transform="translate(-226.841 -163.879)" fill="#2f2e41"/>
    <circle id="Ellipse_22" data-name="Ellipse 22" cx="30.4" cy="30.4" r="30.4" transform="translate(216.401 231.584)" fill="#ffb8b8"/>
    <path id="Path_176" data-name="Path 176" d="M483.839,609.113a163.374,163.374,0,0,1-37.45-4.934l-.362-.1-16.964-78.033A28.746,28.746,0,0,1,447.545,492.7a99.587,99.587,0,0,1,63.5-1.268h0A29.049,29.049,0,0,1,530.393,525.8l-18.948,78.219-.267.127C503.3,607.871,493.457,609.113,483.839,609.113Z" transform="translate(-235.444 -185.228)" fill="#b5b5b5"/>
    <path id="Path_177" data-name="Path 177" d="M454.922,597.358a12.446,12.446,0,0,1,17.917-6.575l35.414-23.045,1.01,16.836L477.08,608.613a12.514,12.514,0,0,1-22.158-11.256Z" transform="translate(-229.315 -167.412)" fill="#ffb8b8"/>
    <path id="Path_178" data-name="Path 178" d="M482.361,620.426a5.608,5.608,0,0,1-1.6-.236,5.511,5.511,0,0,1-3.667-3.486l-4.032-11.422a5.535,5.535,0,0,1,1.612-6.068l45.51-27.322-17.94-80.033.456-.11c.186-.046,18.566-4.229,26.1,15.856,5.275,14.067,24.794,44.654,23.417,65.323a18.423,18.423,0,0,1-15.251,16.991l-51.227,29.35A5.515,5.515,0,0,1,482.361,620.426Z" transform="translate(-224.898 -184.156)" fill="#b5b5b5"/>
    <path id="Path_179" data-name="Path 179" d="M495.073,595.165a12.446,12.446,0,0,0-17.917-6.575l-34.966-19.677-1.458,13.469,32.182,24.039a12.514,12.514,0,0,0,22.158-11.256Z" transform="translate(-232.506 -167.933)" fill="#ffb8b8"/>
    <path id="Path_180" data-name="Path 180" d="M475.747,620.426a5.515,5.515,0,0,1-3.371-1.157l-54.941-26.875A18.423,18.423,0,0,1,402.183,575.4c-1.377-20.669,21.855-53.731,27.13-67.8,7.532-20.085,25.913-15.9,26.1-15.856l.456.11-21.653,82.508,49.223,24.846a5.535,5.535,0,0,1,1.612,6.068L481.018,616.7a5.511,5.511,0,0,1-3.667,3.486A5.612,5.612,0,0,1,475.747,620.426Z" transform="translate(-241.684 -184.156)" fill="#b5b5b5"/>
    <path id="Path_182" data-name="Path 182" d="M447.194,460.253c-1.8-4.57,1.154-10.016,5.54-12.23s9.677-1.793,14.368-.334c3.942,1.226,7.637,3.126,11.482,4.627a25.7,25.7,0,0,0,12.071,2.15c4.1-.463,8.185-2.764,9.864-6.535,1.74-3.909.557-8.68-2.123-12.017a23.27,23.27,0,0,0-10.659-6.851c-9.045-3.186-19.492-3.28-27.889,1.352s-14.1,14.494-12.368,23.925" transform="translate(-231.097 -199.506)" fill="#2f2e41"/>
  </g>
  <g id="introduction_icon_laptop" transform="translate(-13)">
    <path id="Path_181" data-name="Path 181" d="M537.381,620.637H427.223a8.674,8.674,0,0,1-8.664-8.664V551.324a8.674,8.674,0,0,1,8.664-8.664H537.381a8.674,8.674,0,0,1,8.664,8.664v60.649A8.674,8.674,0,0,1,537.381,620.637Z" transform="translate(-239.777 -163.959)" fill="#09f"/>
    <circle id="Ellipse_23" data-name="Ellipse 23" cx="7.426" cy="7.426" r="7.426" transform="translate(235.099 410.263)" fill="#fff"/>
  </g>
  <g id="aboutme_icon_apple">
    <path id="Path_187" data-name="Path 187" d="M592.571,617.052c0,8.141-6.6,11.841-14.74,11.841s-14.74-3.7-14.74-11.841,3.276-17.639,14.74-14.364C589.295,597.775,592.571,608.911,592.571,617.052Z" transform="translate(-191.417 -178.976)" fill="#ff6584"/>
    <path id="Path_188" data-name="Path 188" d="M575.721,609.4a2.356,2.356,0,0,1-2.341-2.054c-.488-4.061-3.178-12.016-4.312-15.247h0a2.108,2.108,0,0,1,.272-1.939,2.211,2.211,0,0,1,3.3-.238,2.11,2.11,0,0,1,.579,1.58c-.222,4.147,2.8,10.848,4.623,14.474a2.362,2.362,0,0,1-1.869,3.411,2.175,2.175,0,0,1-.25.013Z" transform="translate(-190.026 -181.874)" fill="#3f3d56"/>
    <path id="Path_189" data-name="Path 189" d="M585.565,600.32c5.117-4.188,1.1-12.758-5.3-11.113a5.171,5.171,0,0,0-2.307,1.23c-3.928,3.711-4.537,13.206-4.537,13.206S580.356,604.583,585.565,600.32Z" transform="translate(-188.962 -181.943)" fill="#3f3d56"/>
  </g>
</svg>
