<svg xmlns="http://www.w3.org/2000/svg" width="25.487" height="25.202" viewBox="0 0 25.487 25.202">
  <g id="arrow" transform="translate(0 -5.402)">
    <path id="Path_190" data-name="Path 190" d="M3.152,440.391a3.128,3.128,0,0,0,1.988-.709l7.566-6.163,7.639,6.224a3.151,3.151,0,0,0,3.981-4.885l-9.63-7.847a3.149,3.149,0,0,0-3.981,0L1.161,434.8a3.15,3.15,0,0,0,1.991,5.594Z" transform="translate(0 -409.847)" fill="#fff"/>
    <path id="Path_191" data-name="Path 191" d="M3.152,19.491a3.127,3.127,0,0,0,1.988-.709l7.566-6.163,7.639,6.224a3.151,3.151,0,1,0,3.981-4.885L14.7,6.111a3.149,3.149,0,0,0-3.981,0L1.161,13.895a3.152,3.152,0,0,0,1.991,5.6Z" transform="translate(0)" fill="#fff"/>
  </g>
</svg>
