<svg xmlns="http://www.w3.org/2000/svg" width="900.611" height="985.746" viewBox="0 0 822.611 985.746">
  <g id="Contact_icon" data-name="Contact icon" transform="translate(156.999 -9901)">
    <g id="Group_6" data-name="Group 6" transform="translate(-21 9901)">
      <path class="message_grey" id="Path_41" data-name="Path 41" d="M877.1,282.443h-.729a29.927,29.927,0,0,1-29.893-29.893V242.342H757.523v-1.458h90.409V252.55a28.469,28.469,0,0,0,27.706,28.426V240.884h21.144a10.949,10.949,0,0,0,10.937-10.937V118.395a10.949,10.949,0,0,0-10.936-10.937H618.265a10.949,10.949,0,0,0-10.937,10.937v80.93H605.87v-80.93A12.409,12.409,0,0,1,618.265,106H896.782a12.409,12.409,0,0,1,12.395,12.395V229.947a12.409,12.409,0,0,1-12.395,12.395H877.1Z" transform="translate(-258.29 -106)" fill="#8d8d8d"/>
      <path class="message_grey" id="Path_42" data-name="Path 42" d="M872.506,153.257a9.111,9.111,0,0,0-9.1-8.757H694.984a9.114,9.114,0,0,0,0,18.228H863.406a9.126,9.126,0,0,0,9.114-9.114,2.934,2.934,0,0,0-.015-.357Z" transform="translate(-279.962 -116.43)" fill="#ccc"/>
      <path class="message_grey" id="Path_43" data-name="Path 43" d="M872.506,195.257a9.111,9.111,0,0,0-9.1-8.757H694.984a9.114,9.114,0,0,0,0,18.228H863.406a9.126,9.126,0,0,0,9.114-9.114A2.934,2.934,0,0,0,872.506,195.257Z" transform="translate(-279.962 -127.807)" fill="#ccc"/>
      <path class="message_grey" id="Path_44" data-name="Path 44" d="M872.923,237.257a9.111,9.111,0,0,0-9.1-8.757H695.4a9.107,9.107,0,0,0-7,3.281,9.524,9.524,0,0,0-.992,1.458h80.537a10.95,10.95,0,0,1,10.937,10.936v2.552h84.94a9.126,9.126,0,0,0,9.114-9.114,2.9,2.9,0,0,0-.014-.357Z" transform="translate(-280.379 -139.185)" fill="#ccc"/>
      <path class="bush" id="Path_45" data-name="Path 45" d="M147.011,757.46c.4.326.793.638,1.2.944H248.391q1.119-.46,2.229-.944a117.969,117.969,0,0,0,29.218-18.191,119.665,119.665,0,0,0,15.112-14.847c5.435-6.682,10.441-13.964,12.77-22.262s1.629-17.808-3.561-24.689a22.1,22.1,0,0,0-5.832-5.341c-.373-.236-.751-.463-1.138-.675a29.059,29.059,0,0,0-21.086-2.536c-10.035,2.593-18.375,9.832-24.325,18.323s-9.813,18.233-13.619,27.872C234.3,697.91,222.6,682.5,206.8,674.666s-35.423-7.74-50.884.746A51.138,51.138,0,0,0,142.9,685.66c-.373.4-.737.812-1.1,1.228a51.285,51.285,0,0,0-12.647,31.447,49.291,49.291,0,0,0,17.851,39.126Z" transform="translate(242.854 -258.24)" fill="#8d8d8d"/>
      <path class="bush" id="Path_46" data-name="Path 46" d="M287.2,759.637h1.417c.019-.316.042-.628.071-.944a105.86,105.86,0,0,1,3.1-18.295,112.781,112.781,0,0,1,18.092-38,107.956,107.956,0,0,1,30.932-28.552.671.671,0,0,0,.33-.487.706.706,0,0,0-1.044-.737,1.066,1.066,0,0,0-.094.061,106.941,106.941,0,0,0-18.946,14.7,113.762,113.762,0,0,0-24.42,35.007,110.313,110.313,0,0,0-9.36,36.3C287.252,759.009,287.228,759.326,287.2,759.637Z" transform="translate(200.036 -259.473)" fill="#fff"/>
      <path class="bush" id="Path_47" data-name="Path 47" d="M146.331,693.4a.086.086,0,0,0,.033.009c1.034.189,2.073.387,3.1.6a140.171,140.171,0,0,1,24.712,7.5,145.837,145.837,0,0,1,22.9,11.806A148.182,148.182,0,0,1,217.6,728.944a145.222,145.222,0,0,1,17.468,18.946,140.476,140.476,0,0,1,10.678,16.085c.179.312.354.628.529.944h1.62c-.17-.316-.345-.633-.524-.944a141.634,141.634,0,0,0-13.214-19.518,146.8,146.8,0,0,0-18.092-18.772,150.1,150.1,0,0,0-20.958-15.244,147.267,147.267,0,0,0-23.385-11.41,140.3,140.3,0,0,0-24.3-6.857l-.689-.128C145.855,691.887,145.477,693.219,146.331,693.4Z" transform="translate(238.328 -264.756)" fill="#fff"/>
      <path class="bush" id="Path_48" data-name="Path 48" d="M184.956,761.2a93.612,93.612,0,0,1,29.678.669,95.556,95.556,0,0,1,27.944,9.77,92.186,92.186,0,0,1,13.945,9.213c.712.569-.3,1.566-1,1a91.526,91.526,0,0,0-25.4-14.278,94.284,94.284,0,0,0-28.365-5.754,90.23,90.23,0,0,0-16.423.745.734.734,0,0,1-.871-.495.713.713,0,0,1,.495-.871Z" transform="translate(227.876 -283.256)" fill="#fff"/>
      <path class="message_blue" id="Path_49" data-name="Path 49" d="M688.782,235H410.265a12.412,12.412,0,0,0-12.395,12.395V358.947a12.412,12.412,0,0,0,12.395,12.395h19.686v40.1h.729a29.925,29.925,0,0,0,29.893-29.893V371.342H688.782a12.412,12.412,0,0,0,12.395-12.395V247.395A12.412,12.412,0,0,0,688.782,235Zm10.937,123.947a10.95,10.95,0,0,1-10.937,10.936H459.115V381.55a28.477,28.477,0,0,1-27.706,28.428V369.884H410.265a10.95,10.95,0,0,1-10.937-10.937V247.395a10.95,10.95,0,0,1,10.936-10.937H688.782a10.95,10.95,0,0,1,10.937,10.936Z" transform="translate(-201.943 -140.946)" fill="#3f3d56"/>
      <path class="message_blue" id="Path_50" data-name="Path 50" d="M655.406,273.5H486.984a9.111,9.111,0,0,0-9.1,8.757,2.94,2.94,0,0,0-.015.357,9.127,9.127,0,0,0,9.114,9.114H655.406a9.114,9.114,0,0,0,0-18.228Z" transform="translate(-223.615 -151.375)" fill="#008be8"/>
      <path class="message_blue" id="Path_51" data-name="Path 51" d="M655.406,315.5H486.984a9.111,9.111,0,0,0-9.1,8.757,2.94,2.94,0,0,0-.015.357,9.127,9.127,0,0,0,9.114,9.114H655.406a9.114,9.114,0,0,0,0-18.228Z" transform="translate(-223.615 -162.753)" fill="#008be8"/>
      <path class="message_blue" id="Path_52" data-name="Path 52" d="M655.406,357.5H486.984a9.111,9.111,0,0,0-9.1,8.757,2.94,2.94,0,0,0-.015.357,9.127,9.127,0,0,0,9.114,9.114H655.406a9.114,9.114,0,0,0,0-18.228Z" transform="translate(-223.615 -174.131)" fill="#008be8"/>
      <path class="human" id="Path_53" data-name="Path 53" d="M341.369,555.189a7.811,7.811,0,0,1-.982-.062,8.022,8.022,0,0,1-6.824-9.835,7.644,7.644,0,0,1,.226-.754l-24.326-31.143a8.128,8.128,0,0,1-.19-9.7l8.521-11.835,11.137,8.592-4.474,7.687,17.719,31.059a7.714,7.714,0,0,1,1.058.172,8.022,8.022,0,0,1-1.865,15.822Z" transform="translate(-177.532 -210.528)" fill="#a0616a"/>
      <path class="human" id="Path_54" data-name="Path 54" d="M282.466,662.307h8.939l4.252-34.478H282.465Z" transform="translate(-76.531 -170.078)" fill="#a0616a"/>
      <path class="human" id="Path_55" data-name="Path 55" d="M0,0H28.093V10.854H10.854A10.854,10.854,0,0,1,0,0Z" transform="translate(232.111 500.53) rotate(179.997)" fill="#2f2e41"/>
      <path class="human" id="Path_56" data-name="Path 56" d="M181.466,662.307h8.939l4.252-34.478H181.465Z" transform="translate(-49.17 -170.078)" fill="#a0616a"/>
      <path class="human" id="Path_57" data-name="Path 57" d="M0,0H28.093V10.854H10.854A10.854,10.854,0,0,1,0,0Z" transform="translate(158.472 500.529) rotate(179.997)" fill="#2f2e41"/>
      <path class="human" id="Path_58" data-name="Path 58" d="M318.122,487.885l20.068,7.626,4.9-13.61a8.143,8.143,0,0,0-3.647-9.842h0a8.143,8.143,0,0,0-10.4,2.03Z" transform="translate(-180.34 -204.878)" fill="#008be8"/>
      <path class="human" id="Path_59" data-name="Path 59" d="M379.4,692.015A3.611,3.611,0,0,1,375.9,689.3c-10.007-38.286-20.169-57.476-31.064-79.666a2.9,2.9,0,0,0-5.464.843l-13.506,78.05A3.633,3.633,0,0,1,322.2,691.6l-20.051-.489a3.6,3.6,0,0,1-2.579-1.167,3.269,3.269,0,0,1-.951-2.659C307.7,627.393,314.848,573.18,328.6,556.641a4.875,4.875,0,0,1,1.294-.88l-.417-.064c-.119-.018-.437-.067-.441-.386l0-.309.314-.06a4.062,4.062,0,0,1,1.474.222l31.384,4.83a3.625,3.625,0,0,1,3.072,3.663c1.706,7.982,4.321,20.029,4.555,20.623,16.744,31.834,23.242,56.9,30,99.706a3.636,3.636,0,0,1-2.779,4.1l-16.831,3.839A3.665,3.665,0,0,1,379.4,692.015Z" transform="translate(-175.051 -227.617)" fill="#2f2e41"/>
      <path class="human" id="Path_60" data-name="Path 60" d="M370.078,542.348a3.613,3.613,0,0,1-.836-.1l-30.9-7.35a3.561,3.561,0,0,1-2.272-1.684,3.735,3.735,0,0,1-.353-2.9c3.332-11.551-1.037-25.871-6.255-39.624a18.96,18.96,0,0,1,10.367-20.115l.084-.041,16.222.819a18.222,18.222,0,0,1,12.079,10.338c6.253,14.634,8.043,33.411,5.473,57.406a3.635,3.635,0,0,1-3.611,3.253Z" transform="translate(-183.343 -204.751)" fill="#008be8"/>
      <path class="human" id="Path_61" data-name="Path 61" d="M384.806,507.669a7.919,7.919,0,0,1-4.6-1.463l-11.968-8.53,8.538-11.179,7.708,4.438,30.973-17.868a7.709,7.709,0,0,1,.167-1.059,8.02,8.02,0,1,1,5.972,9.643,7.651,7.651,0,0,1-.755-.223l-31.114,24.546a7.937,7.937,0,0,1-4.919,1.7Z" transform="translate(-193.915 -203.475)" fill="#a0616a"/>
      <path class="human" id="Path_62" data-name="Path 62" d="M361.027,504.129l17.753-12.072-8.343-11.816a8.143,8.143,0,0,0-10.155-2.654h0a8.143,8.143,0,0,0-4.3,9.684Z" transform="translate(-190.503 -206.447)" fill="#008be8"/>
      <ellipse class="human" id="Ellipse_3" data-name="Ellipse 3" cx="17.907" cy="17.907" rx="17.907" ry="17.907" transform="translate(144.079 223.907)" fill="#a0616a"/>
      <path class="human" id="Path_63" data-name="Path 63" d="M343.738,447.612c-2.688-.012-4.761-2.841-4.641-5.527s1.924-5.047,4.1-6.63a44.426,44.426,0,0,1,7.144-3.709,15.232,15.232,0,0,0,6.321-4.847,10.729,10.729,0,0,0,.746-9.846,15.8,15.8,0,0,0-6.8-7.454,20.69,20.69,0,0,0-27.419,6.015l-3.068,8.354a13.66,13.66,0,0,0-1.7,13.838,17.875,17.875,0,0,0,10.631,9.487,26.1,26.1,0,0,0,14.466.434" transform="translate(-180.111 -187.476)" fill="#2f2e41"/>
      <path class="human" id="Path_64" data-name="Path 64" d="M311.82,423.689A13.743,13.743,0,0,0,289,423.323c-2.154,3.1-2.936,6.919-4.418,10.39a27.537,27.537,0,0,1-13.7,14.074c5.379.946,10.737-1.79,15.038-5.157s8.082-7.476,12.9-10.051a24.271,24.271,0,0,1,12.335-2.833" transform="translate(-167.542 -190.364)" fill="#2f2e41"/>
      <ellipse class="grey_face" id="Ellipse_4" data-name="Ellipse 4" cx="43.017" cy="43.017" rx="43.017" ry="43.017" transform="translate(600.578 180.817)" fill="#8d8d8d"/>
      <path class="grey_face" id="Path_66" data-name="Path 66" d="M1014.783,448.349c-1.752-.049-3.932-.11-5.611-1.337a4.31,4.31,0,0,1-1.7-3.218,2.9,2.9,0,0,1,.986-2.381A3.74,3.74,0,0,1,1012,440.9l-1.43-10.452,1.05-.144L1013.3,442.6l-.877-.4c-1.017-.466-2.412-.7-3.279.029a1.862,1.862,0,0,0-.611,1.534,3.257,3.257,0,0,0,1.262,2.4c1.306.955,3.044,1.078,5.016,1.133Z" transform="translate(-367.082 -193.854)" fill="#fff"/>
      <rect class="grey_face" id="Rectangle_48" data-name="Rectangle 48" width="5.708" height="1.06" transform="translate(632.585 237.499)" fill="#fff"/>
      <rect class="grey_face" id="Rectangle_49" data-name="Rectangle 49" width="5.708" height="1.06" transform="translate(650.601 237.499)" fill="#fff"/>
      <path class="grey_face" id="Path_67" data-name="Path 67" d="M979.386,400.86c-4.6-.524-8.156-4.928-8.547-9.4-.465-5.316,2.631-10.365,6.878-13.348,4.442-3.12,9.975-4.422,15.33-4.709a42.131,42.131,0,0,1,28.8,9.492c4.012,3.332,7.759,7.577,9.179,12.7,1.233,4.453.23,9.5-3.351,12.615a8.466,8.466,0,0,1-6.5,2,16.145,16.145,0,0,1-7.562-3.363c-4.317-3.139-7.861-7.511-13.12-9.151-3.856-1.2-8.861-.144-11.217,3.343a6.35,6.35,0,0,0-1.014,2.659.823.823,0,0,0,.555.978.8.8,0,0,0,.978-.555c.619-4.392,6.019-6.031,9.809-5.028,5.526,1.463,9.235,6.394,13.769,9.527a16.732,16.732,0,0,0,8.018,3.2,9.957,9.957,0,0,0,7-2.149c3.873-3.058,5.354-8.319,4.5-13.055-.992-5.484-4.683-10.185-8.734-13.824A43.687,43.687,0,0,0,994.3,371.769c-5.6.129-11.449,1.285-16.275,4.247-4.682,2.872-8.3,7.678-8.774,13.264A12.522,12.522,0,0,0,976,401.493a10.57,10.57,0,0,0,3.387.956c1.015.116,1.006-1.475,0-1.59Z" transform="translate(-356.717 -177.994)" fill="#fff"/>
    </g>
    <g class="stairs" id="Union_1" data-name="Union 1" transform="translate(-6 10401.746)" fill="none">
      <path d="M-151,485V118.776H53.1V61.187h57.6V0H477V366.224H419.4v61.187H366.3V485Z" stroke="none"/>
      <path d="M 364.2999877929688 483.0001525878906 L 364.2999877929688 427.4118041992188 L 364.2999877929688 425.4118041992188 L 366.2999877929688 425.4118041992188 L 417.3999938964844 425.4118041992188 L 417.3999938964844 366.2243957519531 L 417.3999938964844 364.2243957519531 L 419.3999938964844 364.2243957519531 L 475 364.2243957519531 L 475 1.999977707862854 L 112.7000045776367 1.999977707862854 L 112.7000045776367 61.18739318847656 L 112.7000045776367 63.18739318847656 L 110.7000045776367 63.18739318847656 L 55.10000228881836 63.18739318847656 L 55.10000228881836 118.7757263183594 L 55.10000228881836 120.7757263183594 L 53.10000228881836 120.7757263183594 L -148.9992523193359 120.7757263183594 L -148.9992523193359 483.0001525878906 L 364.2999877929688 483.0001525878906 M 366.2999877929688 485.0001525878906 L -150.9992523193359 485.0001525878906 L -150.9992523193359 118.7757263183594 L 53.10000228881836 118.7757263183594 L 53.10000228881836 61.18739318847656 L 110.7000045776367 61.18739318847656 L 110.7000045776367 -2.229817619081587e-05 L 477 -2.229817619081587e-05 L 477 366.2243957519531 L 419.3999938964844 366.2243957519531 L 419.3999938964844 427.4118041992188 L 366.2999877929688 427.4118041992188 L 366.2999877929688 485.0001525878906 Z" stroke="none" fill="#707070"/>
    </g>
  </g>
</svg>
