<svg xmlns="http://www.w3.org/2000/svg" viewBox="0 0 531.133 477.554">
  <g id="failed_icon_form" transform="translate(0 0.281)">
    <g id="grey_message" data-name="Grey message">
      <path id="Path_91" data-name="Path 91" d="M333.87,336.745,313.384,359.71c17.019,7.219,34.247-2.8,41.309-7.827a102.315,102.315,0,1,0-20.822-15.137Z" transform="translate(-278.795 -160.176)" fill="#e6e6e6"/>
      <path id="Path_92" data-name="Path 92" d="M357.671,261.129c21.135-.22,42.267-.6,63.4-.885q10.568-.144,21.137-.252c6.071-.063,6.086-9.5,0-9.44-21.135.22-42.267.6-63.4.885q-10.568.144-21.137.252c-6.071.063-6.086,9.5,0,9.44Z" transform="translate(-287.702 -175.867)" fill="#fff"/>
      <path id="Path_93" data-name="Path 93" d="M357.671,287.766l85.418-.885,24.293-.252c6.071-.063,6.086-9.5,0-9.44l-85.418.885-24.293.252C351.6,278.389,351.584,287.829,357.671,287.766Z" transform="translate(-287.702 -180.478)" fill="#fff"/>
      <path id="Path_94" data-name="Path 94" d="M357.671,314.4l85.418-.885,24.293-.252c6.071-.063,6.086-9.5,0-9.44l-85.418.885-24.293.252C351.6,305.027,351.584,314.467,357.671,314.4Z" transform="translate(-287.702 -185.088)" fill="#fff"/>
      <circle id="Ellipse_8" data-name="Ellipse 8" cx="7.442" cy="7.442" r="7.442" transform="translate(0 204.511)" fill="#e6e6e6"/>
    </g>
    <g id="human" transform="translate(-8 -2)">
      <path id="Path_95" data-name="Path 95" d="M724.746,445.9l-4.16,25.967a11.26,11.26,0,0,1-14.843,8.845h0a11.26,11.26,0,0,1-6.123-16.086l13.536-24.414L765.485,335.7a18.3,18.3,0,0,1,20.746-8.272L791.776,329l-8.245,24.178Z" transform="translate(-347.431 -189.051)" fill="#a0616a"/>
      <path id="Path_96" data-name="Path 96" d="M626.606,521.856l12.249-.645-13.538-45.129-19.342,3.868Z" transform="translate(-104.882 -82.449)" fill="#a0616a"/>
      <path id="Path_97" data-name="Path 97" d="M482.791,532.4H496.33l7.092-43.841H482.791Z" transform="translate(-83.562 -84.607)" fill="#a0616a"/>
      <path id="Path_98" data-name="Path 98" d="M782.755,246.258a36.536,36.536,0,1,0,73.068.775c.009-.255.009-.52.009-.775a36.538,36.538,0,1,0-73.077,0Z" transform="translate(-362.064 -168.8)" fill="#2f2e41"/>
      <circle id="Ellipse_9" data-name="Ellipse 9" cx="18.823" cy="18.823" r="18.823" transform="translate(453.907 19.883)" fill="#2f2e41"/>
      <circle id="Ellipse_10" data-name="Ellipse 10" cx="21.111" cy="21.111" r="21.111" transform="translate(433.236 75.345)" fill="#a0616a"/>
      <path id="Path_100" data-name="Path 100" d="M831.528,286.2s1.934,24.5,14.184,29.656L798,359.693,782.531,352.6l10.96-30.946s25.144-5.158,14.828-27.722Z" transform="translate(-362.026 -182.036)" fill="#a0616a"/>
      <path id="Path_101" data-name="Path 101" d="M743.5,595.251l34.814,1.934L794.433,475.98l41.906,120.56L878.245,583,836.984,445.035C826.36,406.87,835.3,364.927,849.878,321.9l-16.118-4.513-36.748,5.158h0a21.343,21.343,0,0,0-18.62,10.972c-9.052,16.208-15.6,31.932-10.261,45.365C746.735,434.873,742.122,511.4,743.5,595.251Z" transform="translate(-355.232 -187.434)" fill="#ff4d4d"/>
      <path id="Path_102" data-name="Path 102" d="M866.277,456.024l-8.953,24.727a11.26,11.26,0,0,0,8.692,14.933h0a11.26,11.26,0,0,0,13.155-11.1V456.669l4.917-116.784a18.3,18.3,0,0,0-14.133-17.294l-5.613-1.31-4.513,25.144Z" transform="translate(-374.854 -188.109)" fill="#a0616a"/>
      <path id="Path_103" data-name="Path 103" d="M907.924,725.289h0a11.382,11.382,0,0,0,11.377-8.617l.428-1.714a40.866,40.866,0,0,0-1.559-24.723l-4.315-11.1-12.894,5.8-3.968,27.335a11.383,11.383,0,0,0,10.93,13.013Z" transform="translate(-381.817 -250.047)" fill="#ff4d4d"/>
      <path id="Path_104" data-name="Path 104" d="M730.755,730.065h0a9.7,9.7,0,0,0,9.434.363l24.55-13.828a8.824,8.824,0,0,0,4.359-9.222l-2.782-15.765H750.844l-22.113,23.524a9.7,9.7,0,0,0,2.024,14.928Z" transform="translate(-352.259 -252.206)" fill="#ff4d4d"/>
      <path id="Path_105" data-name="Path 105" d="M783.157,241.331c5.724,13.874,20.517,23.75,37.867,23.75,14.859,0,27.847-7.241,34.867-18.048.011-.255.011-.52.011-.775a36.539,36.539,0,0,0-72.745-4.927Z" transform="translate(-362.134 -168.8)" fill="#2f2e41"/>
      <path id="Path_99" data-name="Path 99" d="M841.751,218.765a18.819,18.819,0,0,0,22.736-27.122,18.818,18.818,0,1,1-30.2,22.1,18.727,18.727,0,0,0,7.461,5.019Z" transform="translate(-370.984 -165.671)" fill="#2f2e41"/>
    </g>
    <g id="red_message" data-name="Red message">
      <path id="Path_106" data-name="Path 106" d="M662.6,357.081a102.121,102.121,0,1,0-53.041,89.593c7.062,5.025,24.29,15.047,41.309,7.828L630.38,431.537A101.871,101.871,0,0,0,662.6,357.081Z" transform="translate(-305.917 -176.635)" fill="#ff4d4d"/>
      <path id="Path_107" data-name="Path 107" d="M517.694,355.857c21.135-.22,42.267-.6,63.4-.885q10.568-.144,21.137-.252c6.071-.063,6.086-9.5,0-9.44-21.135.22-42.267.6-63.4.885q-10.568.144-21.137.252C511.623,346.48,511.607,355.92,517.694,355.857Z" transform="translate(-315.399 -192.263)" fill="#fff"/>
      <path id="Path_108" data-name="Path 108" d="M517.694,382.494l85.418-.885,24.293-.252c6.071-.063,6.086-9.5,0-9.44l-85.418.885-24.293.252c-6.071.063-6.086,9.5,0,9.44Z" transform="translate(-315.399 -196.873)" fill="#fff"/>
      <path id="Path_109" data-name="Path 109" d="M517.694,409.132l85.418-.885L627.405,408c6.071-.063,6.086-9.5,0-9.44l-85.418.885-24.293.252C511.623,399.755,511.607,409.2,517.694,409.132Z" transform="translate(-315.399 -201.483)" fill="#fff"/>
    </g>
  </g>
</svg>
