<svg xmlns="http://www.w3.org/2000/svg" width="760.689" height="389.871" viewBox="0 0 760.689 389.871">
  <g id="Group_7" data-name="Group 7" transform="translate(-39.433 -150.178)">
    <path class="human" id="Path_71" data-name="Path 71" d="M397.619,376.668c5.335-10.071,6.215-23.187-.418-32.454-3.949-5.516-10.114-9.137-16.583-11.18s-13.293-2.643-20.059-3.139c-6.7-.491-13.514-.885-20.056.63s-12.879,5.215-16.066,11.126c-5.384,9.985-.479,22.789-4.434,33.422-3.629,9.758-13.957,15.462-24.11,17.765s-20.75,2.057-30.908,4.337-20.5,7.932-24.2,17.665c-2.671,7.039-1.344,15.146,2.175,21.8s9.031,12.043,14.881,16.781c8.728,7.068,18.939,13.122,30.153,13.735,11.816.646,23.37-4.979,31.875-13.208s14.295-18.862,18.921-29.755c2.935-6.91,5.707-14.346,11.588-19.013,4.321-3.429,9.818-4.931,15.148-6.352l6.036-1.609a41.441,41.441,0,0,0,25.894-20.253Z" transform="translate(-199.939 -179.277)" fill="#2f2e41"/>
    <path class="human" id="Path_72" data-name="Path 72" d="M150.079,528.665H137.82l-5.833-47.288h18.1Z" fill="#ffb8b8"/>
    <path class="human" id="Path_73" data-name="Path 73" d="M129.062,525.162h23.644v14.887h-38.53a14.887,14.887,0,0,1,14.886-14.887Z" fill="#2f2e41"/>
    <path class="human" id="Path_74" data-name="Path 74" d="M252.079,528.665H239.82l-5.833-47.288h18.1Z" fill="#ffb8b8"/>
    <path class="human" id="Path_75" data-name="Path 75" d="M231.062,525.162h23.644v14.887h-38.53a14.887,14.887,0,0,1,14.886-14.887Z" fill="#2f2e41"/>
    <path class="human" id="Path_76" data-name="Path 76" d="M373.585,670.357a4.847,4.847,0,0,1-.512-.027L323.2,664.985a4.691,4.691,0,0,1-4.063-5.751l44.163-167.97a4.718,4.718,0,0,1,3.545-3.492l40.968-11.42a4.722,4.722,0,0,1,4.549,1.482c26.34,29.71,46.19,95.571,61.227,178.585a4.692,4.692,0,0,1-4.022,5.49l-40.868,5.218a4.678,4.678,0,0,1-5.171-3.627L403.64,574.852a3.648,3.648,0,0,0-7.137.082l-18.33,91.651A4.666,4.666,0,0,1,373.585,670.357Z" transform="translate(-199.939 -179.277)" fill="#2f2e41"/>
    <circle class="human" id="Ellipse_7" data-name="Ellipse 7" cx="24.561" cy="24.561" r="24.561" transform="translate(141.498 171.333)" fill="#ffb8b8"/>
    <path class="human" id="Path_77" data-name="Path 77" d="M365.312,491.737a4.681,4.681,0,0,1-4.521-3.485l-14.776-55.51a16.778,16.778,0,0,1,10.11-19.965c11.894-4.643,23.226-6.365,33.68-5.121h0c9.292,1.108,20.754,56.118,20,57.292l3.667,11a4.691,4.691,0,0,1-3.442,6.065l-43.7,9.612A4.732,4.732,0,0,1,365.312,491.737Z" transform="translate(-199.939 -179.277)" fill="#00e8b9"/>
    <path class="human" id="Path_78" data-name="Path 78" d="M378.554,548.5a7.61,7.61,0,0,0-7.368-9.049l-8.513-25.67-8.7,11.037,9.418,22.685a7.652,7.652,0,0,0,15.164,1Z" transform="translate(-198.939 -180.277)" fill="#ffb8b8"/>
    <path class="human" id="Path_80" data-name="Path 80" d="M360.707,536.644a4.69,4.69,0,0,1-4.454-3.218L336.3,491.21a24.4,24.4,0,0,1-1.235-7.669l6-54.871a12.059,12.059,0,0,1,24.03-1.456l-9.18,62.631,14.649,38.44a4.681,4.681,0,0,1-2.478,5.225l-5.278,2.639A4.686,4.686,0,0,1,360.707,536.644Z" transform="translate(-199.939 -179.277)" fill="#00e8b9"/>
    <path class="human" id="Path_82" data-name="Path 82" d="M338.061,362.473a28.6,28.6,0,0,0,16.9,10.631,29.87,29.87,0,0,0,20.06-2.874c4.947-2.673,8.9-6.684,12.782-10.633,1.618-1.648,3.341-3.549,3.26-5.8-.126-3.484-4.314-5.388-7.909-6.148a56.435,56.435,0,0,0-35.033,3.94c-4.88,2.267-9.964,6.368-9.232,11.466" transform="translate(-199.939 -179.277)" fill="#2f2e41"/>
    <path class="checklist border" id="Path_83" data-name="Path 83" d="M983.061,368.723h-482a17.024,17.024,0,0,0-17,17v186a17.024,17.024,0,0,0,17,17h482a17.024,17.024,0,0,0,17-17v-186A17.024,17.024,0,0,0,983.061,368.723Zm15,203a15.018,15.018,0,0,1-15,15h-482a15.018,15.018,0,0,1-15-15v-186a15.018,15.018,0,0,1,15-15h482a15.018,15.018,0,0,1,15,15Z" transform="translate(-199.939 -179.277)" fill="#828282"/>
    <path class="human" id="Path_79" data-name="Path 79" d="M488,486.811a7.61,7.61,0,0,0-11.385-2.562l-22.556-14.921-.021,14.054L475.463,495.4A7.652,7.652,0,0,0,488,486.812Z" transform="translate(-198.939 -179.277)" fill="#ffb8b8"/>
    <path class="checklist tick" id="Path_84" data-name="Path 84" d="M588.575,536.723a58,58,0,1,1,58-58A58,58,0,0,1,588.575,536.723Zm0-114a56,56,0,1,0,56,56A56,56,0,0,0,588.575,422.723Z" transform="translate(-199.939 -179.277)" fill="#828282"/>
    <path class="human" id="Path_81" data-name="Path 81" d="M467.29,492.354a4.68,4.68,0,0,1-2.115-.5L425.487,471.8a24.368,24.368,0,0,1-6.289-4.56L380.461,428.38a12.059,12.059,0,0,1,15.992-17.994l41.962,46.6,33.263,21.12a4.68,4.68,0,0,1,1.933,5.45l-1.875,5.6a4.692,4.692,0,0,1-4.447,3.2Z" transform="translate(-199.939 -179.277)" fill="#00e8b9"/>
    <path class="checklist message" id="Path_85" data-name="Path 85" d="M940.047,441.723h-231c-6.71,0-12.219,4.244-12.48,9.608a2.568,2.568,0,0,0-.02.392c.01,5.52,5.6,9.992,12.5,10h231c6.9,0,12.5-4.477,12.5-10s-5.6-10-12.5-10Z" transform="translate(-199.939 -176.277)" fill="#00e8b9"/>
    <path class="checklist message" id="Path_86" data-name="Path 86" d="M940.047,490.723h-231c-6.71,0-12.219,4.244-12.48,9.608a2.568,2.568,0,0,0-.02.392c.01,5.52,5.6,9.992,12.5,10h231c6.9,0,12.5-4.477,12.5-10S946.951,490.723,940.047,490.723Z" transform="translate(-199.939 -176.277)" fill="#00e8b9"/>
    <path class="checklist tick" id="Path_87" data-name="Path 87" d="M582.1,504.064a7.46,7.46,0,0,1-4.489-1.491l-.08-.06-16.9-12.942a7.51,7.51,0,1,1,9.135-11.923l10.949,8.4L606.59,452.3a7.51,7.51,0,0,1,10.529-1.39l-.161.218.165-.215a7.518,7.518,0,0,1,1.39,10.53l-30.434,39.692a7.513,7.513,0,0,1-5.975,2.93Z" transform="translate(-199.939 -179.277)" fill="#00e8b9"/>
    <path class="human" id="Path_90" data-name="Path 90" d="M252.079,528.665H239.82l-5.833-47.288h18.1Z" fill="#ffb8b8"/>
  </g>
</svg>
