<svg class="icon_arrow_right icon_svg" xmlns="http://www.w3.org/2000/svg" width="40.888" height="40.888" viewBox="0 0 40.888 40.888">
  <path id="Icon_awesome-arrow-alt-circle-down" data-name="Icon awesome-arrow-alt-circle-down" d="M38.888,19.444A19.444,19.444,0,1,1,19.444,0,19.441,19.441,0,0,1,38.888,19.444ZM15.994,10.349v9.095H10.436a.942.942,0,0,0-.666,1.607l9.009,8.962a.932.932,0,0,0,1.325,0l9.009-8.962a.941.941,0,0,0-.666-1.607H22.894V10.349a.944.944,0,0,0-.941-.941H16.935A.944.944,0,0,0,15.994,10.349Z" transform="translate(1 39.888) rotate(-90)" stroke-width="2"/>
</svg>