<svg class="icon_live icon_svg" xmlns="http://www.w3.org/2000/svg" width="39.448" height="35.862" viewBox="0 0 39.448 35.862">
  <path id="Icon_material-live-tv" data-name="Icon material-live-tv" d="M37.362,10.172H23.752l5.9-5.9L28.4,3l-7.172,7.172L14.052,3,12.779,4.273l5.917,5.9H5.086A3.585,3.585,0,0,0,1.5,13.759V35.276a3.6,3.6,0,0,0,3.586,3.586H37.362a3.6,3.6,0,0,0,3.586-3.586V13.759A3.585,3.585,0,0,0,37.362,10.172Zm0,25.1H5.086V13.759H37.362ZM15.845,17.345V31.689L28.4,24.517Z" transform="translate(-1.5 -3)" />
</svg>
