<svg class="icon_projects icon_svg" xmlns="http://www.w3.org/2000/svg" width="33.458" height="25.737" viewBox="0 0 33.458 25.737">
  <path id="Icon_awesome-project-diagram" data-name="Icon awesome-project-diagram" d="M20.075,16.085H13.383a1.642,1.642,0,0,0-1.673,1.609v6.434a1.642,1.642,0,0,0,1.673,1.609h6.692a1.642,1.642,0,0,0,1.673-1.609V17.694A1.642,1.642,0,0,0,20.075,16.085ZM10.037,1.609A1.642,1.642,0,0,0,8.364,0H1.673A1.642,1.642,0,0,0,0,1.609V8.043A1.642,1.642,0,0,0,1.673,9.651h5L10.5,16.087a3.36,3.36,0,0,1,2.882-1.611H13.4l-3.36-5.655V6.434h11.71V3.217H10.037ZM31.785,0H25.093A1.642,1.642,0,0,0,23.42,1.609V8.043a1.642,1.642,0,0,0,1.673,1.609h6.692a1.642,1.642,0,0,0,1.673-1.609V1.609A1.642,1.642,0,0,0,31.785,0Z"/>
</svg>
