<svg class="icon_arrow_white icon_svg" xmlns="http://www.w3.org/2000/svg" width="60.554" height="60.554" viewBox="0 0 60.554 60.554">
  <path id="Icon_awesome-arrow-circle-down" data-name="Icon awesome-arrow-circle-down" d="M61.117,30.84A30.277,30.277,0,1,1,30.84.563,30.272,30.272,0,0,1,61.117,30.84ZM43.585,27.311l-8.839,9.217V14.236a2.923,2.923,0,0,0-2.93-2.93H29.863a2.923,2.923,0,0,0-2.93,2.93V36.529l-8.839-9.217a2.933,2.933,0,0,0-4.188-.049l-1.331,1.343a2.918,2.918,0,0,0,0,4.139l16.188,16.2a2.918,2.918,0,0,0,4.139,0l16.2-16.2a2.918,2.918,0,0,0,0-4.139l-1.331-1.343a2.933,2.933,0,0,0-4.188.049Z" transform="translate(-0.563 -0.563)"/>
</svg>
