<svg xmlns="http://www.w3.org/2000/svg" width="120.346" height="104" viewBox="0 0 120.346 104">
  <g id="mail_link" data-name="mail link" transform="translate(-296 -8729.368)">
    <g id="mail" transform="translate(296 8713.368)">
      <path id="Path_13" data-name="Path 13" d="M126.237,42.867l-49.993,30.8-1.46.906a12.792,12.792,0,0,1-13.09,0l-1.46-.906L10.24,42.913a11.46,11.46,0,0,1,3.323-2.9L60.032,12.924a15.829,15.829,0,0,1,16.413.045l46.469,27.089A12.639,12.639,0,0,1,126.237,42.867Z" transform="translate(-8.066 5.347)" fill="#3ba7fe"/>
      <path id="Path_14" data-name="Path 14" d="M127.42,344.529a13.079,13.079,0,0,1-9.625,4.077H22.049a13.281,13.281,0,0,1-9.675-4.077l49.536-37.1,1.461.906a12.814,12.814,0,0,0,13.1,0l1.461-.906Z" transform="translate(-9.746 -228.606)" fill="#1e88e5"/>
      <g id="Group_1" data-name="Group 1" transform="translate(0 48.018)">
        <path id="Path_15" data-name="Path 15" d="M47.157,193.333l-44.53,37.1A11.366,11.366,0,0,1,0,223.185v-54a11.025,11.025,0,0,1,2.174-6.614Z" transform="translate(0 -162.529)" fill="#2196f3"/>
        <path id="Path_16" data-name="Path 16" d="M337.077,169.02v54a11.156,11.156,0,0,1-2.673,7.248l-44.484-37.1,44.983-30.8A11.156,11.156,0,0,1,337.077,169.02Z" transform="translate(-216.731 -162.361)" fill="#2196f3"/>
      </g>
    </g>
  </g>
</svg>
