<svg xmlns="http://www.w3.org/2000/svg" width="100" height="100" viewBox="0 0 100 100">
  <path id="Icon_metro-facebook" data-name="Icon metro-facebook" d="M85.906,1.928H19.236A16.667,16.667,0,0,0,2.571,18.6V85.26a16.666,16.666,0,0,0,16.665,16.668H52.571V58.178h-12.5v-12.5h12.5V36.3A15.625,15.625,0,0,1,68.2,20.678H83.821v12.5H68.2A3.125,3.125,0,0,0,65.071,36.3v9.375H82.258l-3.125,12.5H65.071v43.75H85.906A16.667,16.667,0,0,0,102.571,85.26V18.6A16.667,16.667,0,0,0,85.906,1.928Z" transform="translate(-2.571 -1.928)" fill="#1f91ff"/>
</svg>
