<svg class="icon_code_github icon_svg" xmlns="http://www.w3.org/2000/svg" width="39.8" height="39.88" viewBox="0 0 39.8 39.88">
  <path id="Icon_zocial-github" data-name="Icon zocial-github" d="M0,19.72a19.2,19.2,0,0,1,1.6-7.737A19.262,19.262,0,0,1,12.163,1.415a19.559,19.559,0,0,1,15.473,0A19.429,19.429,0,0,1,38.2,11.983a19.559,19.559,0,0,1,0,15.473A19.572,19.572,0,0,1,27.637,38.1a19.559,19.559,0,0,1-15.473,0A19.4,19.4,0,0,1,1.6,27.457,19.2,19.2,0,0,1,0,19.72Zm3.111,0a16.222,16.222,0,0,0,3.35,10.05,17.928,17.928,0,0,0,8.654,6.181v-3.19a3.882,3.882,0,0,1,1.6-3.47,11.448,11.448,0,0,1-1.874-.279,9.423,9.423,0,0,1-3.47-1.276Q7.737,25.543,7.737,19.8a7.171,7.171,0,0,1,1.994-5.1,6.709,6.709,0,0,1,.2-5.1h.8a3.281,3.281,0,0,1,1,.2,13.713,13.713,0,0,1,3.47,1.755,18.811,18.811,0,0,1,4.786-.638,19.272,19.272,0,0,1,4.825.638,16.991,16.991,0,0,1,2.911-1.6,4.323,4.323,0,0,1,1.834-.4l.479.04a6.965,6.965,0,0,1,.2,5.1,7.171,7.171,0,0,1,1.994,5.1q0,4.467-2.193,6.74a8.019,8.019,0,0,1-3.151,1.994,13.714,13.714,0,0,1-3.629.758,3.97,3.97,0,0,1,1.635,3.47v3.19A18.062,18.062,0,0,0,33.38,29.69a16.252,16.252,0,0,0,3.27-9.97,16.807,16.807,0,0,0-1.316-6.54A16.967,16.967,0,0,0,19.9,2.931a16.96,16.96,0,0,0-6.54,1.356A17.534,17.534,0,0,0,8.016,7.836,18.5,18.5,0,0,0,4.427,13.18a16.807,16.807,0,0,0-1.316,6.54Z" transform="translate(0 0.18)" />
</svg>
