<svg class="icon_user icon_svg" xmlns="http://www.w3.org/2000/svg" width="24.951" height="26.291" viewBox="0 0 24.951 26.291">
  <path id="Icon_awesome-user-alt" data-name="Icon awesome-user-alt" d="M12.476,14.789a7.215,7.215,0,0,0,7.018-7.394A7.215,7.215,0,0,0,12.476,0,7.215,7.215,0,0,0,5.458,7.394,7.215,7.215,0,0,0,12.476,14.789Zm6.238,1.643H16.028a8.092,8.092,0,0,1-7.105,0H6.238A6.411,6.411,0,0,0,0,23.005v.822a2.4,2.4,0,0,0,2.339,2.465H22.612a2.4,2.4,0,0,0,2.339-2.465v-.822A6.411,6.411,0,0,0,18.713,16.432Z"/>
</svg>
