<svg class="icon_linkedin icon_svg" xmlns="http://www.w3.org/2000/svg" width="100" height="100" viewBox="0 0 100 100">
  <path id="Icon_awesome-linkedin" data-name="Icon awesome-linkedin" d="M92.857,2.25H7.121A7.174,7.174,0,0,0,0,9.46V95.04a7.174,7.174,0,0,0,7.121,7.21H92.857A7.193,7.193,0,0,0,100,95.04V9.46A7.193,7.193,0,0,0,92.857,2.25ZM30.223,87.964H15.4V40.241H30.246V87.964ZM22.813,33.723a8.594,8.594,0,1,1,8.594-8.594A8.6,8.6,0,0,1,22.813,33.723ZM85.781,87.964H70.96V64.75c0-5.536-.112-12.656-7.7-12.656-7.723,0-8.906,6.027-8.906,12.254V87.964H39.531V40.241H53.75v6.518h.2c1.987-3.75,6.83-7.7,14.04-7.7,15,0,17.79,9.888,17.79,22.746Z" transform="translate(0 -2.25)" fill="#1f91ff"/>
</svg>
