<svg class="icon_footer_github icon_svg" xmlns="http://www.w3.org/2000/svg" width="71.21" height="69.431" viewBox="0 0 71.21 69.431">
  <path id="Icon_awesome-github" data-name="Icon awesome-github" d="M23.818,56.468c0,.287-.33.517-.747.517-.474.043-.8-.187-.8-.517,0-.287.33-.517.747-.517C23.445,55.908,23.818,56.138,23.818,56.468Zm-4.465-.646c-.1.287.187.617.617.7a.673.673,0,0,0,.89-.287c.086-.287-.187-.617-.617-.747A.737.737,0,0,0,19.353,55.822Zm6.346-.244c-.416.1-.7.373-.66.7.043.287.416.474.847.373s.7-.373.66-.66S26.115,55.535,25.7,55.578ZM35.146.563C15.233.563,0,15.68,0,35.593A35.994,35.994,0,0,0,24.335,69.935c1.838.33,2.484-.8,2.484-1.737,0-.89-.043-5.8-.043-8.815,0,0-10.05,2.154-12.16-4.278,0,0-1.637-4.178-3.991-5.255,0,0-3.288-2.254.23-2.211a7.578,7.578,0,0,1,5.542,3.7c3.144,5.542,8.413,3.948,10.466,3a7.979,7.979,0,0,1,2.3-4.838c-8.026-.89-16.123-2.053-16.123-15.864,0-3.948,1.091-5.929,3.388-8.456a13.565,13.565,0,0,1,.373-9.748c3-.933,9.906,3.876,9.906,3.876a33.917,33.917,0,0,1,18.032,0s6.906-4.824,9.906-3.876a13.558,13.558,0,0,1,.373,9.748c2.3,2.541,3.7,4.522,3.7,8.456,0,13.854-8.456,14.96-16.482,15.864,1.321,1.134,2.441,3.288,2.441,6.662,0,4.838-.043,10.825-.043,12,0,.933.66,2.067,2.484,1.737C61.476,65.14,71.21,51.515,71.21,35.593,71.21,15.68,55.059.563,35.146.563ZM13.955,50.079c-.187.144-.144.474.1.747.23.23.56.33.747.144.187-.144.144-.474-.1-.747C14.472,49.993,14.142,49.893,13.955,50.079ZM12.4,48.917c-.1.187.043.416.33.56a.427.427,0,0,0,.617-.1c.1-.187-.043-.416-.33-.56C12.735,48.73,12.5,48.773,12.4,48.917Zm4.652,5.111c-.23.187-.144.617.187.89.33.33.747.373.933.144.187-.187.1-.617-.187-.89C17.673,53.841,17.243,53.8,17.056,54.028Zm-1.637-2.11c-.23.144-.23.517,0,.847s.617.474.8.33a.655.655,0,0,0,0-.89C16.022,51.874,15.649,51.73,15.419,51.917Z" transform="translate(0 -0.563)"/>
</svg>
