<svg id="introduction_icon" xmlns="http://www.w3.org/2000/svg" width="895" height="529.554" viewBox="0 0 895 529.554">
  <g id="introduction_icon_marks">
    <path id="Path_118" data-name="Path 118" d="M349.833,687.326H320V657.493h29.833Zm-28.176-1.657h26.519V659.15H321.657Z" transform="translate(-104.537 -220.766)" fill="#ff6584"/>
    <path id="Path_119" data-name="Path 119" d="M274.982,674.981l-10.658-9.769,1.12-1.221,9.231,8.463,21.01-31.516,1.379.92Z" transform="translate(-95 -217.93)" fill="#ccc"/>
    <path id="Path_120" data-name="Path 120" d="M284.176,664.951v20.718H257.657V659.15h20.718v-1.657H256v29.833h29.833V664.951Z" transform="translate(-93.574 -220.766)" fill="#e5e5e5"/>
  </g>
  <g id="introduction_icon_border">
    <path id="Path_104" data-name="Path 104" d="M955,639.317H60V130.493H955ZM61.657,637.66H953.343V132.15H61.657Z" transform="translate(-60 -130.493)" fill="#878787"/>
    <circle id="Ellipse_12" data-name="Ellipse 12" cx="7.5" cy="7.5" r="7.5" transform="translate(54 44.539)" fill="#09f"/>
    <circle id="Ellipse_13" data-name="Ellipse 13" cx="7.5" cy="7.5" r="7.5" transform="translate(76 44.539)" fill="#f2f2f2"/>
    <circle id="Ellipse_14" data-name="Ellipse 14" cx="7.5" cy="7.5" r="7.5" transform="translate(99 44.539)" fill="#f2f2f2"/>
    <path id="Path_107" data-name="Path 107" d="M1084.818,642.708v55.345h-58.937a71.887,71.887,0,0,1,58.937-55.345Z" transform="translate(-225.452 -216.234)" fill="#e6e6e6"/>
    <path id="Path_121" data-name="Path 121" d="M1034.673,241.1a27.659,27.659,0,1,1,27.659-27.659h0a27.659,27.659,0,0,1-27.659,27.659Zm0-54.031a26.373,26.373,0,1,0,26.373,26.373h0a26.373,26.373,0,0,0-26.373-26.373Z" transform="translate(-222.22 -139.963)" fill="#ccc"/>
    <path id="Path_123" data-name="Path 123" d="M926.731,617.951H103V162.993H926.731ZM104.526,616.47h820.68V164.475H104.526Z" transform="translate(-67.366 -136.06)" fill="#ccc"/>
    <path id="Path_122" data-name="Path 122" d="M1049.557,206.338l-.6-.6-11.232,11.233-11.233-11.233-.6.6,11.232,11.232-9.737,9.737.6.6,9.737-9.737,9.737,9.737.6-.6-9.737-9.737Z" transform="translate(-225.452 -143.382)" fill="#ccc"/>
    <path id="Path_146" data-name="Path 146" d="M415.731,477.939H134.9a9.919,9.919,0,0,0-9.9,9.9V596.212a9.919,9.919,0,0,0,9.9,9.909H415.731a9.919,9.919,0,0,0,9.9-9.9V487.844a9.919,9.919,0,0,0-9.9-9.9Zm8.74,118.273a8.75,8.75,0,0,1-8.739,8.74H134.9a8.75,8.75,0,0,1-8.74-8.74V487.844a8.75,8.75,0,0,1,8.74-8.74H415.731a8.75,8.75,0,0,1,8.74,8.74Z" transform="translate(-71.134 -190.009)" fill="#ccc"/>
    <path id="Path_141" data-name="Path 141" d="M423.949,515.938H276.835c-4.273,0-7.782,2.818-7.948,6.369a1.774,1.774,0,0,0-.012.26c.006,3.66,3.563,6.625,7.961,6.63H423.949c4.4,0,7.961-2.968,7.961-6.63S428.346,515.938,423.949,515.938Z" transform="translate(-95.779 -196.518)" fill="#09f"/>
    <path id="Path_141-2" data-name="Path 141-2" d="M423.949,547.939H276.835c-4.273,0-7.782,2.818-7.948,6.369a1.774,1.774,0,0,0-.012.26c.006,3.66,3.563,6.625,7.961,6.63H423.949c4.4,0,7.961-2.968,7.961-6.63S428.345,547.939,423.949,547.939Z" transform="translate(-95.779 -202)" fill="#09f"/>
    <path id="Path_141-3" data-name="Path 141-3" d="M423.949,579.939H276.835c-4.273,0-7.782,2.818-7.948,6.369a1.774,1.774,0,0,0-.012.26c.006,3.66,3.563,6.625,7.961,6.63H423.949c4.4,0,7.961-2.968,7.961-6.63S428.346,579.939,423.949,579.939Z" transform="translate(-95.779 -207.481)" fill="#09f"/>
    <path id="Path_140" data-name="Path 140" d="M187.733,583.428a35.1,35.1,0,1,1,35.1-35.1A35.1,35.1,0,0,1,187.733,583.428Zm0-68.985A33.887,33.887,0,1,0,221.62,548.33h0A33.887,33.887,0,0,0,187.733,514.443Z" transform="translate(-75.868 -196.055)" fill="#878787"/>
    <circle id="Ellipse_18" data-name="Ellipse 18" cx="19.5" cy="19.5" r="19.5" transform="translate(92 332.539)" fill="#09f"/>
  </g>
  <g id="introduction_icon_human">
    <g id="introduction_icon_human-2" data-name="introduction_icon_human">
      <circle id="Ellipse_15" data-name="Ellipse 15" cx="51.124" cy="51.124" r="51.124" transform="translate(532.726 133.523)" fill="#a0616a"/>
      <path id="Path_111" data-name="Path 111" d="M829.388,472.8l-28.45,82.485v.007l-13.711,39.77s-1.4,63.234-2.806,63.234c-.292,0-.707.911-1.174,2.347H647.012l10.934-116.176-.671-5.413-8.552-69.388A34.774,34.774,0,0,1,671.7,432.607l14.291-5.024a113.138,113.138,0,0,1,58.432-4.455h0a113.138,113.138,0,0,1,47.741,21.259Z" transform="translate(-160.553 -180.286)" fill="#09f"/>
      <path id="Path_113" data-name="Path 113" d="M797.805,297.762s-16.232-35.169-47.346-27.053-48.7,20.29-50.048,32.464.676,30.435.676,30.435,3.382-25.027,25.027-19.614,55.458,1.352,55.458,1.352l5.411,48.7s6.087-8.793,12.85-3.382S819.448,308.583,797.805,297.762Z" transform="translate(-169.62 -154.303)" fill="#2f2e41"/>
      <path id="Path_114" data-name="Path 114" d="M887.131,611.352s0,32.109-11.8,59.961H834.779l.357-.94,11.24-49.187-4.213-16.86-10.183-38.363v-.007a112.149,112.149,0,0,1,.9-60.728l.461-1.55a28.261,28.261,0,0,1,27.089-20.206h0s18.267,15.46,16.86,44.967Z" transform="translate(-191.595 -190.957)" fill="#09f"/>
      <path id="Path_143" data-name="Path 143" d="M486.9,736.983A15.516,15.516,0,0,1,505.9,722.674l29.4-46.648,11.825,26.1-29.734,40.3a15.6,15.6,0,0,1-30.5-5.439Z" transform="translate(-133.121 -223.941)" fill="#a0616a"/>
      <path id="Path_115" data-name="Path 115" d="M645.146,441.357l-1.622.287a52.168,52.168,0,0,0-40.068,33.042q-.287.782-.551,1.572l-11.242,50.587L514.372,674.4l23.893,14.051s66.047-77.29,74.479-103.99l33.95-65.289a21.159,21.159,0,0,0,2.371-10.575l-2.545-66.131a1.171,1.171,0,0,0-1.373-1.108Z" transform="translate(-137.832 -183.74)" fill="#09f"/>
    </g>
  </g>
</svg>
