<svg width="51" height="61" viewBox="0 0 51 61" fill="none" xmlns="http://www.w3.org/2000/svg">
<g clip-path="url(#clip0_2901_252)">
<path d="M0.230885 29.7658C0.270138 29.7087 0.31366 29.6559 0.361 29.6084L14.6476 11.9595C15.0802 11.3951 15.8092 11.3617 16.2759 11.8848C16.5073 12.1442 16.6406 12.5069 16.6447 12.8885V22.1774H35.1558C35.8471 22.1774 36.6152 22.3632 36.6152 23.1062V37.9686C36.5239 38.9111 35.9295 39.6678 35.1558 39.8264H16.6447V48.1864C16.6336 48.7422 16.3669 49.2438 15.9534 49.4868H15.4925C15.1716 49.4715 14.8683 49.3047 14.6476 49.0224L0.361 31.4662C-0.0632973 31.0401 -0.121517 30.2787 0.230885 29.7658Z" fill="white"/>
<path d="M40.071 21.7129C40.7073 21.7129 41.2231 22.3367 41.2231 23.1063V37.9686C41.2231 38.7381 40.7073 39.362 40.071 39.362C39.4347 39.362 38.9188 38.7381 38.9188 37.9686V23.1063C38.9189 22.3366 39.4347 21.7129 40.071 21.7129Z" fill="white"/>
<path d="M44.6799 21.7129C45.3161 21.7129 45.832 22.3367 45.832 23.1063V37.9686C45.832 38.7381 45.3161 39.362 44.6799 39.362C44.0436 39.362 43.5277 38.7381 43.5277 37.9686V23.1063C43.5278 22.3366 44.0436 21.7129 44.6799 21.7129Z" fill="white"/>
<path d="M49.2882 21.7129C49.9245 21.7129 50.4404 22.3367 50.4404 23.1063V37.9686C50.4404 38.7381 49.9245 39.362 49.2882 39.362C48.652 39.362 48.1361 38.7381 48.1361 37.9686V23.1063C48.1362 22.3366 48.652 21.7129 49.2882 21.7129Z" fill="white"/>
</g>
<defs>
<clipPath id="clip0_2901_252">
<rect width="50.4403" height="61" fill="white" transform="matrix(-1 0 0 1 50.4404 0)"/>
</clipPath>
</defs>
</svg>
