<svg xmlns="http://www.w3.org/2000/svg" width="932.44" height="593.379" viewBox="0 0 932.44 593.379">
  <g id="projects_icon" transform="translate(0)">
    <g id="blue_circle">
      <path id="blue_circle-2" data-name="blue_circle" d="M1033.947,321.792A124.5,124.5,0,0,1,950.579,439.3c-.774.27-1.561.54-2.347.786V313.619H785.291c.047-.787.105-1.573.176-2.348H948.232v-24.7a5.873,5.873,0,0,0-5.871-5.871H791.972c.27-.787.552-1.573.857-2.348a124.475,124.475,0,0,1,241.117,43.445Z" transform="translate(-101.506 -197.316)" fill="#09f"/>
    </g>
    <g id="border_blue_tile">
      <path id="border_tile" d="M578.608,335.327H475.28a8.228,8.228,0,0,0-8.219,8.219V446.874a8.228,8.228,0,0,0,8.219,8.219H578.608a8.228,8.228,0,0,0,8.219-8.219V343.546A8.228,8.228,0,0,0,578.608,335.327Zm5.871,111.547a5.873,5.873,0,0,1-5.871,5.871H475.28a5.873,5.873,0,0,1-5.871-5.871V343.546a5.873,5.873,0,0,1,5.871-5.871H578.608a5.873,5.873,0,0,1,5.871,5.871Z" transform="translate(-156.935 -173.277)" fill="#878787"/>
    </g>
    <g id="projects_icon_border">
      <path id="Path_112" data-name="Path 112" d="M1005.1,266.327H433.28a8.229,8.229,0,0,0-8.219,8.219V662.025a8.228,8.228,0,0,0,8.219,8.219H1005.1a8.228,8.228,0,0,0,8.219-8.219V274.546A8.228,8.228,0,0,0,1005.1,266.327Zm5.871,395.7a5.873,5.873,0,0,1-5.871,5.871H433.28a5.873,5.873,0,0,1-5.871-5.871V274.546a5.873,5.873,0,0,1,5.871-5.871H1005.1a5.873,5.873,0,0,1,5.871,5.871Z" transform="translate(-164.251 -185.296)" fill="#878787"/>
      <rect id="Rectangle_58" data-name="Rectangle 58" width="585.915" height="2.348" transform="translate(261.985 113.956)" fill="#878787"/>
      <circle id="Ellipse_11" data-name="Ellipse 11" cx="7.045" cy="7.045" r="7.045" transform="translate(274.901 91.599)" fill="#878787"/>
      <circle id="Ellipse_12" data-name="Ellipse 12" cx="7.045" cy="7.045" r="7.045" transform="translate(295.155 91.599)" fill="#878787"/>
      <circle id="Ellipse_13" data-name="Ellipse 13" cx="7.045" cy="7.045" r="7.045" transform="translate(315.41 91.599)" fill="#878787"/>
      <path id="Path_114" data-name="Path 114" d="M736.521,335.827H633.193a7.647,7.647,0,0,0-7.632,7.632V446.787a7.647,7.647,0,0,0,7.632,7.632H736.521a7.647,7.647,0,0,0,7.632-7.632V343.459A7.647,7.647,0,0,0,736.521,335.827Z" transform="translate(-129.328 -173.19)" fill="#09f"/>
      <path id="Path_115" data-name="Path 115" d="M894.521,335.827H791.193a7.647,7.647,0,0,0-7.632,7.632V446.787a7.647,7.647,0,0,0,7.632,7.632H894.521a7.647,7.647,0,0,0,7.632-7.632V343.459a7.647,7.647,0,0,0-7.632-7.632Z" transform="translate(-101.808 -173.19)" fill="#e6e6e6"/>
      <path id="Path_116" data-name="Path 116" d="M578.521,467.827H475.193a7.647,7.647,0,0,0-7.632,7.632V578.787a7.647,7.647,0,0,0,7.632,7.632H578.521a7.647,7.647,0,0,0,7.632-7.632V475.459A7.647,7.647,0,0,0,578.521,467.827Z" transform="translate(-156.848 -150.199)" fill="#e6e6e6"/>
      <path id="Path_117" data-name="Path 117" d="M736.521,467.827H633.193a7.647,7.647,0,0,0-7.632,7.632V578.787a7.647,7.647,0,0,0,7.632,7.632H736.521a7.647,7.647,0,0,0,7.632-7.632V475.459A7.647,7.647,0,0,0,736.521,467.827Z" transform="translate(-129.328 -150.199)" fill="#09f"/>
      <path id="Path_118" data-name="Path 118" d="M894.521,467.827H791.193a7.647,7.647,0,0,0-7.632,7.632V578.787a7.647,7.647,0,0,0,7.632,7.632H894.521a7.647,7.647,0,0,0,7.632-7.632V475.459a7.647,7.647,0,0,0-7.632-7.632Z" transform="translate(-101.808 -150.199)" fill="#e6e6e6"/>
    </g>
    <g id="blue_tile">
      <path id="blue_tile-2" data-name="blue_tile" d="M557.021,499.919H453.693a7.641,7.641,0,0,1-7.632-7.632V388.959a7.641,7.641,0,0,1,7.632-7.632H557.021a7.641,7.641,0,0,1,7.632,7.632V492.287a7.641,7.641,0,0,1-7.632,7.632Z" transform="translate(-160.593 -165.265)" fill="#09f"/>
    </g>
    <g id="projects_icon_human">
      <path id="Path_120" data-name="Path 120" d="M205.163,500.887l13.761-4.224-9.741-55.09-20.311,6.233Z" transform="translate(32.897 76.926)" fill="#a0616a"/>
      <path id="Path_121" data-name="Path 121" d="M0,0H45.242V17.48H17.48A17.48,17.48,0,0,1,0,0Z" transform="translate(282.283 578.227) rotate(162.939)" fill="#2f2e41"/>
      <path id="Path_122" data-name="Path 122" d="M102.748,500.595h14.4l6.848-55.525H102.746Z" transform="translate(17.896 77.535)" fill="#a0616a"/>
      <path id="Path_123" data-name="Path 123" d="M0,0H45.242V17.48H17.48A17.48,17.48,0,0,1,0,0Z" transform="translate(162.798 591.495) rotate(179.997)" fill="#2f2e41"/>
      <path id="Path_124" data-name="Path 124" d="M305.351,575.9a10.758,10.758,0,0,1,.373-16.492l11.161-140.543,22.7,5.671-18.173,137.1A10.816,10.816,0,0,1,305.351,575.9Z" transform="translate(-185.74 -158.727)" fill="#a0616a"/>
      <circle id="Ellipse_14" data-name="Ellipse 14" cx="28.839" cy="28.839" r="28.839" transform="translate(136.226 147.953)" fill="#a0616a"/>
      <path id="Path_125" data-name="Path 125" d="M322.892,421.093c-6.507-8.933-6.708-21.237.3-29.782,4.574-5.576,12.226-10.039,25-10.039,34.051,0,46.967,27.006,46.967,27.006s14.09,25.832,5.871,49.315-8.219,25.832-8.219,25.832l-54.012-4.7S347.912,455.444,322.892,421.093Z" transform="translate(-182.903 -165.275)" fill="#09f"/>
      <path id="Path_126" data-name="Path 126" d="M307.977,442.653l11.636-38.068a18.2,18.2,0,0,1,25.75-10.855h0a18.235,18.235,0,0,1,8.322,23.5l-14.793,33.689Z" transform="translate(-184.644 -163.458)" fill="#09f"/>
      <path id="Path_127" data-name="Path 127" d="M394.46,463.272l45.793,237.184L415.6,707.5,355.712,551.335,328.706,711.023l-25.832,3.523s-11.331-211.287,38.748-250.1Z" transform="translate(-185.724 -150.992)" fill="#2f2e41"/>
      <path id="Path_128" data-name="Path 128" d="M450.184,458.224a12.36,12.36,0,0,0-1.13,1.584l-58.163,2.82-11.2-34.191-19.447,9.242,13.026,36.245,5.276,14.681,71.933-14.068a12.324,12.324,0,1,0-.3-16.313Z" transform="translate(-175.54 -157.06)" fill="#a0616a"/>
      <path id="Path_129" data-name="Path 129" d="M353.333,410.192A18.2,18.2,0,0,1,372.545,389.9h0a18.234,18.234,0,0,1,17.066,18.167v36.793l-31.628,4.866Z" transform="translate(-176.766 -163.778)" fill="#09f"/>
      <path id="Path_130" data-name="Path 130" d="M355.241,382.425c-4.328-.019-7.668-4.576-7.474-8.9s3.1-8.129,6.6-10.677,7.6-4.1,11.5-5.974,7.77-4.21,10.179-7.806a17.279,17.279,0,0,0,1.2-15.857,25.443,25.443,0,0,0-10.959-12.005,33.321,33.321,0,0,0-44.157,9.687l-4.941,13.454c-5.035,6.054-5.833,15.045-2.738,22.286s9.685,12.688,17.121,15.278a42.028,42.028,0,0,0,23.3.7" transform="translate(-183.834 -176.533)" fill="#2f2e41"/>
      <path id="Path_131" data-name="Path 131" d="M339.47,335.751c-2.124-3.4-5.806-5.569-9.612-6.84a30.2,30.2,0,0,0-39.725,27.009c-.4,7.414,1.918,14.664,3.282,21.963s1.636,15.36-2.389,21.6c-3.065,4.753-8.177,7.745-13.222,10.3-4.205,2.13-8.754,4.128-13.448,3.7s-9.413-4.143-9.288-8.855a37.637,37.637,0,0,0-3.149,10.662c-.33,3.706.583,7.7,3.26,10.288,3.89,3.756,10.054,3.481,15.4,2.671,11.574-1.754,23.294-5.044,32.437-12.353s15.211-19.344,12.8-30.8c-1.006-4.785-3.37-9.154-5.28-13.655s-3.4-9.425-2.524-14.236a17.3,17.3,0,0,1,8.8-11.72,23.016,23.016,0,0,1,14.7-2.23c3.287.539,7.39,1.377,9.34-1.324a5.293,5.293,0,0,0-.11-5.646,15.554,15.554,0,0,0-4.218-4.18" transform="translate(-194.419 -174.666)" fill="#2f2e41"/>
    </g>
    <g id="projects_icon_floor">
      <path id="Path_110" data-name="Path 110" d="M252.956,710.6c-14.385-1.183-27.085-11.591-34.307-24.087-2.422-4.191-4.082-9.688-1.339-13.676a7.526,7.526,0,0,1,13.286,1.727,72.851,72.851,0,0,1-1.133-14.843c.111-4.211.906-8.971,4.407-11.313,4.062-2.716,9.917-.56,12.871,3.332s3.756,8.955,4.465,13.79A12.717,12.717,0,0,1,265.343,649.5c5.949.9,10.61,6.049,12.428,11.785s1.251,11.954.08,17.856c-1.372,6.92-3.6,13.785-7.61,19.59s-9.966,10.484-16.877,11.9Z" transform="translate(-200.684 -118.956)" fill="#09f"/>
      <path id="Path_132" data-name="Path 132" d="M565.155,703.088H204.337a1.4,1.4,0,1,1,0-2.8H565.155a1.4,1.4,0,1,1,0,2.8Z" transform="translate(-202.939 -109.709)" fill="#878787"/>
    </g>
  </g>
</svg>
