<?xml version="1.0" encoding="UTF-8" standalone="no"?>
<!DOCTYPE svg PUBLIC "-//W3C//DTD SVG 20010904//EN"
              "http://www.w3.org/TR/2001/REC-SVG-20010904/DTD/svg10.dtd">

<svg xmlns="http://www.w3.org/2000/svg"
     viewBox="0 0 1202 833">
  <path id="Selection #1"
        d="M 15.00,6.00
           C 18.05,10.79 28.77,20.81 29.13,25.00
             29.47,29.03 19.71,38.56 16.94,42.00
             9.49,51.22 5.02,61.10 5.00,73.00
             4.98,83.85 3.95,92.77 8.51,103.00
             10.89,108.33 18.96,118.17 18.97,122.58
             18.98,126.04 14.56,131.81 12.78,135.00
             8.12,143.34 5.12,149.18 5.00,159.00
             4.90,168.05 4.30,178.65 8.23,187.00
             10.98,192.85 21.22,206.37 21.22,211.00
             21.22,215.35 11.05,229.49 8.37,235.00
             4.32,243.32 4.99,252.04 5.00,261.00
             5.02,273.27 9.27,283.36 16.79,293.00
             19.64,296.64 29.47,305.97 29.13,310.00
             28.81,313.76 20.77,321.79 18.13,325.00
             10.79,333.91 5.14,343.13 5.00,355.00
             4.94,360.56 4.56,374.28 5.76,379.00
             7.54,386.06 12.58,393.48 12.74,399.00
             12.91,405.08 8.51,410.27 6.72,416.00
             4.37,423.56 4.99,430.19 5.00,438.00
             5.02,448.38 7.58,455.17 12.97,464.00
             15.41,468.00 21.16,474.24 21.39,479.00
             21.62,483.65 15.78,490.32 13.33,494.17
             8.43,501.85 5.11,509.79 5.00,519.00
             4.82,534.60 4.78,543.00 13.35,556.83
             16.67,562.20 21.36,566.31 25.41,571.04
             26.99,572.89 29.32,575.41 29.13,578.00
             28.84,581.84 20.27,590.68 17.55,594.01
             10.20,603.04 5.14,612.08 5.00,624.00
             5.00,624.00 5.52,647.00 5.52,647.00
             5.52,647.00 11.05,664.00 11.05,664.00
             11.05,664.00 5.90,680.00 5.90,680.00
             4.58,685.51 4.93,695.06 5.00,701.00
             5.11,710.03 8.69,718.51 13.61,726.00
             16.02,729.68 21.17,735.48 21.39,740.00
             21.62,744.65 15.78,751.32 13.33,755.17
             8.43,762.85 5.11,770.79 5.00,780.00
             5.00,780.00 5.00,791.00 5.00,791.00
             5.03,796.77 5.80,802.70 8.22,808.00
             10.35,812.64 16.02,823.43 20.32,826.03
             23.34,827.76 28.69,826.66 32.00,826.03
             40.39,824.61 52.61,820.29 60.00,816.13
             64.57,813.55 74.20,805.78 79.00,805.94
             82.15,806.04 86.37,808.86 89.00,810.52
             95.19,814.42 99.07,817.35 106.00,820.32
             123.37,827.80 131.94,827.03 150.00,827.00
             165.29,826.98 175.29,820.18 183.00,820.18
             187.33,820.18 197.75,824.11 203.00,825.35
             212.39,827.56 217.57,827.01 227.00,827.00
             237.11,826.98 248.77,823.95 258.00,819.82
             262.55,817.78 271.53,812.41 276.00,812.29
             280.30,812.16 287.82,816.57 292.00,818.41
             300.97,822.36 313.17,826.88 323.00,827.00
             323.00,827.00 336.00,827.00 336.00,827.00
             348.63,826.98 362.96,822.39 374.00,816.37
             379.05,813.62 387.66,806.03 393.00,806.06
             398.11,806.09 408.06,813.91 413.00,816.67
             423.87,822.74 437.52,826.98 450.00,827.00
             462.43,827.02 470.74,827.69 483.00,823.96
             483.00,823.96 508.00,814.65 508.00,814.65
             512.37,814.61 520.51,819.08 525.00,820.77
             534.80,824.46 543.44,826.98 554.00,827.00
             569.12,827.02 575.35,827.09 590.00,821.58
             595.72,819.42 608.30,812.07 613.00,812.22
             617.36,812.36 624.69,816.91 629.00,818.77
             639.12,823.15 649.85,826.87 661.00,827.00
             681.21,827.23 689.21,826.20 708.00,817.76
             715.76,814.27 724.52,804.97 731.00,806.16
             735.61,807.01 746.89,815.19 752.00,817.97
             761.67,823.24 774.99,826.98 786.00,827.00
             795.02,827.01 804.13,827.55 813.00,825.72
             819.88,824.29 829.70,819.88 836.00,819.88
             844.01,819.88 855.72,826.84 869.00,827.00
             886.72,827.20 891.85,827.26 909.00,821.15
             914.75,819.11 926.61,811.64 931.59,812.01
             934.73,812.25 945.43,818.23 949.00,819.88
             956.53,823.35 969.71,826.90 978.00,827.00
             993.67,827.18 1006.31,826.59 1021.00,819.97
             1026.25,817.61 1031.27,814.68 1036.00,811.41
             1038.90,809.41 1043.40,805.99 1047.00,805.92
             1051.61,805.82 1061.49,813.33 1066.00,815.82
             1076.26,821.48 1090.18,826.86 1102.00,826.77
             1102.00,826.77 1127.00,826.77 1127.00,826.77
             1133.56,825.35 1143.77,821.00 1150.00,821.38
             1155.55,821.71 1167.18,827.41 1171.42,824.41
             1173.11,823.23 1176.83,818.90 1178.33,817.17
             1186.09,808.25 1193.94,796.22 1194.00,784.00
             1194.00,784.00 1194.00,770.00 1194.00,770.00
             1193.98,755.99 1186.65,750.24 1186.65,742.00
             1186.65,736.44 1191.52,728.34 1193.16,723.00
             1194.44,718.88 1194.01,709.69 1194.00,705.00
             1193.99,696.97 1190.68,686.86 1186.45,680.00
             1184.02,676.06 1177.08,668.03 1176.74,664.00
             1176.37,659.61 1183.14,651.87 1185.69,648.00
             1189.46,642.28 1193.91,630.83 1194.00,624.00
             1194.16,610.23 1195.21,609.98 1190.37,597.00
             1188.94,593.18 1188.68,591.68 1186.46,588.00
             1183.14,582.52 1181.58,580.52 1177.13,576.00
             1174.58,573.42 1170.51,569.63 1169.76,566.00
             1168.89,561.81 1172.22,558.39 1174.81,555.58
             1180.00,549.94 1183.88,545.84 1187.65,539.00
             1187.65,539.00 1193.45,525.00 1193.45,525.00
             1194.32,521.51 1194.32,500.49 1193.45,497.00
             1191.65,489.74 1187.83,483.24 1183.95,477.00
             1181.61,473.24 1181.31,471.32 1178.00,468.00
             1184.13,459.43 1193.87,441.56 1194.00,431.00
             1194.00,431.00 1194.00,419.00 1194.00,419.00
             1193.95,414.89 1193.78,412.92 1192.34,409.00
             1189.05,400.04 1187.73,397.92 1182.58,390.00
             1180.71,387.13 1176.78,382.39 1176.78,379.00
             1176.78,375.51 1183.03,367.30 1185.17,364.00
             1189.69,356.99 1193.90,347.41 1194.00,339.00
             1194.17,324.60 1193.91,315.79 1185.82,303.00
             1181.93,296.87 1180.74,295.48 1175.75,290.27
             1173.37,287.79 1169.96,284.64 1169.63,281.00
             1169.15,275.81 1178.15,267.68 1181.53,263.72
             1187.60,256.57 1193.88,244.50 1193.79,235.00
             1193.79,235.00 1193.79,213.00 1193.79,213.00
             1192.62,208.89 1186.44,197.39 1186.26,191.00
             1186.09,184.75 1191.30,176.06 1193.16,170.00
             1194.44,165.86 1194.01,156.71 1194.00,152.00
             1193.99,143.78 1190.69,134.03 1186.35,127.00
             1183.99,123.20 1176.81,114.95 1176.62,111.00
             1176.44,107.49 1182.94,99.24 1185.12,96.00
             1189.16,89.96 1193.91,78.27 1194.00,71.00
             1194.15,58.17 1195.08,56.17 1190.34,44.00
             1188.87,40.21 1188.00,37.51 1185.77,34.00
             1180.35,25.48 1170.00,18.66 1169.00,10.00
             1156.63,10.61 1151.18,19.45 1142.00,18.78
             1136.98,18.41 1124.23,11.68 1118.00,9.50
             1103.74,4.53 1098.55,4.98 1084.00,5.00
             1072.81,5.02 1062.14,8.48 1052.00,13.02
             1047.61,14.99 1039.45,19.95 1035.00,19.84
             1029.99,19.72 1021.66,14.65 1017.00,12.46
             1009.23,8.81 996.59,5.10 988.00,5.00
             969.14,4.78 960.75,5.16 943.00,13.04
             935.63,16.31 924.03,26.14 918.00,25.94
             913.69,25.80 908.54,21.97 905.00,19.67
             897.23,14.61 895.39,13.83 887.00,10.28
             871.82,3.86 860.97,4.82 845.00,5.00
             832.94,5.15 821.45,11.87 814.00,11.82
             814.00,11.82 791.00,5.89 791.00,5.89
             785.02,4.54 777.25,4.99 771.00,5.00
             760.31,5.02 749.77,7.77 740.00,12.00
             735.07,14.13 726.00,19.79 721.00,19.79
             716.61,19.79 708.31,14.96 704.00,13.02
             695.24,9.10 683.63,5.12 674.00,5.00
             657.06,4.81 647.06,5.07 631.00,12.00
             626.62,13.89 621.88,16.38 618.00,19.13
             614.57,21.57 609.29,25.77 605.00,25.94
             598.88,26.19 584.36,15.12 577.00,11.86
             559.63,4.18 550.26,4.79 532.00,5.00
             523.84,5.10 514.48,7.52 507.00,10.72
             502.77,12.53 493.04,17.37 489.00,17.40
             483.99,17.43 472.92,11.31 467.00,9.33
             453.28,4.76 447.98,4.98 434.00,5.00
             423.70,5.02 413.40,7.56 404.00,11.73
             398.86,14.01 389.14,19.92 384.00,19.80
             379.88,19.71 369.31,13.91 365.00,11.95
             356.94,8.28 344.87,5.11 336.00,5.00
             318.09,4.79 307.65,5.74 291.00,13.47
             282.30,17.52 273.54,26.50 267.00,25.97
             262.75,25.62 257.50,21.67 254.00,19.36
             250.17,16.84 243.24,13.22 239.00,11.31
             223.29,4.23 212.59,4.81 196.00,5.00
             180.80,5.18 170.24,12.29 160.42,12.16
             160.42,12.16 139.00,6.47 139.00,6.47
             130.90,4.46 124.24,4.99 116.00,5.00
             105.29,5.02 94.77,8.18 85.00,12.42
             79.95,14.62 72.10,19.63 67.00,19.72
             62.44,19.81 56.20,16.09 52.00,14.18
             41.95,9.60 26.03,2.87 15.00,6.00 Z" />
</svg>
