<?xml version="1.0" encoding="UTF-8" standalone="no"?>
<!DOCTYPE svg PUBLIC "-//W3C//DTD SVG 20010904//EN"
              "http://www.w3.org/TR/2001/REC-SVG-20010904/DTD/svg10.dtd">

<svg xmlns="http://www.w3.org/2000/svg"
     width="6.4in" height="1.25in"
     viewBox="0 0 1920 375">
  <path id="Selection"
        fill="none" stroke="black" stroke-width="1"
        d="M 0.00,10.00
           C 0.00,10.00 0.00,375.00 0.00,375.00
             0.00,375.00 1920.00,375.00 1920.00,375.00
             1920.00,375.00 1920.00,11.00 1920.00,11.00
             1918.61,11.47 1918.00,11.38 1916.84,12.59
             1914.71,14.82 1914.90,19.06 1908.10,28.00
             1901.38,36.83 1891.72,42.54 1881.00,45.10
             1870.78,47.55 1859.06,45.29 1850.00,40.12
             1846.52,38.13 1837.89,30.61 1835.00,30.63
             1831.86,30.64 1826.91,35.96 1824.00,37.90
             1817.87,41.97 1809.34,45.11 1802.00,45.83
             1794.42,46.58 1785.74,44.10 1779.00,40.73
             1779.00,40.73 1769.00,35.07 1769.00,35.07
             1765.44,34.09 1761.97,37.42 1759.00,39.13
             1753.54,42.27 1748.20,44.27 1742.00,45.38
             1727.57,47.98 1716.95,40.47 1713.00,39.74
             1709.24,39.04 1705.47,41.62 1702.00,42.94
             1696.13,45.16 1692.27,46.00 1686.00,46.00
             1677.50,46.00 1669.17,43.50 1662.00,38.91
             1658.97,36.97 1651.97,30.61 1649.00,30.63
             1645.86,30.64 1640.91,35.96 1638.00,37.90
             1631.71,42.08 1622.57,45.42 1615.00,45.91
             1607.76,46.38 1599.43,43.95 1593.00,40.73
             1593.00,40.73 1583.00,35.07 1583.00,35.07
             1579.58,34.13 1576.73,36.89 1574.00,38.54
             1568.95,41.58 1563.76,43.74 1558.00,44.99
             1543.10,48.21 1537.08,42.18 1530.00,42.18
             1522.75,42.18 1517.10,47.73 1503.00,45.70
             1496.10,44.71 1488.68,41.55 1483.00,37.56
             1480.38,35.72 1474.96,30.61 1472.00,30.63
             1468.87,30.64 1464.64,35.33 1462.00,37.21
             1456.59,41.08 1449.51,43.90 1443.00,45.19
             1433.53,47.08 1424.54,45.01 1416.00,40.73
             1416.00,40.73 1406.00,35.07 1406.00,35.07
             1402.33,34.06 1397.38,38.45 1394.00,40.22
             1387.58,43.58 1379.31,46.19 1372.00,45.96
             1361.14,45.61 1353.43,40.37 1350.00,39.74
             1346.17,39.03 1340.89,42.34 1337.00,43.64
             1330.00,46.00 1322.29,46.88 1315.00,45.33
             1308.46,43.94 1302.47,41.40 1297.00,37.56
             1294.38,35.72 1288.96,30.61 1286.00,30.63
             1282.87,30.64 1278.64,35.33 1276.00,37.21
             1270.59,41.08 1263.51,43.90 1257.00,45.19
             1247.53,47.08 1238.54,45.01 1230.00,40.73
             1230.00,40.73 1220.00,35.07 1220.00,35.07
             1216.33,34.06 1211.38,38.45 1208.00,40.22
             1201.58,43.58 1193.31,46.19 1186.00,45.96
             1176.97,45.67 1169.61,41.42 1166.00,41.42
             1163.46,41.42 1157.12,44.03 1154.00,44.97
             1148.26,46.35 1140.78,46.49 1135.00,44.97
             1128.09,43.45 1122.75,41.03 1117.00,36.84
             1114.56,35.07 1109.91,30.61 1107.00,30.63
             1103.87,30.64 1099.64,35.33 1097.00,37.21
             1091.59,41.08 1084.51,43.90 1078.00,45.19
             1068.53,47.08 1059.54,45.01 1051.00,40.73
             1051.00,40.73 1041.00,35.07 1041.00,35.07
             1037.33,34.06 1032.38,38.45 1029.00,40.22
             1022.58,43.58 1014.31,46.19 1007.00,45.96
             996.89,45.63 989.82,41.02 986.00,40.43
             981.94,39.80 976.20,43.02 972.00,44.28
             965.36,46.27 957.77,46.72 951.00,45.10
             944.09,43.45 938.75,41.03 933.00,36.84
             930.56,35.07 925.91,30.61 923.00,30.63
             919.87,30.64 915.64,35.33 913.00,37.21
             907.59,41.08 900.51,43.90 894.00,45.19
             884.53,47.08 875.54,45.01 867.00,40.73
             867.00,40.73 857.00,35.07 857.00,35.07
             853.33,34.06 848.38,38.45 845.00,40.22
             838.58,43.58 830.31,46.19 823.00,45.96
             817.13,45.77 810.28,43.74 805.00,41.22
             802.02,39.80 797.13,36.36 794.00,36.73
             791.76,36.99 785.85,40.88 783.00,42.13
             775.27,45.50 766.37,47.04 758.00,45.54
             751.25,44.32 744.60,41.49 739.00,37.56
             736.38,35.72 730.96,30.61 728.00,30.63
             724.87,30.64 720.64,35.33 718.00,37.21
             712.59,41.08 705.51,43.90 699.00,45.19
             689.53,47.08 680.54,45.01 672.00,40.73
             672.00,40.73 662.00,35.07 662.00,35.07
             658.33,34.06 653.38,38.45 650.00,40.22
             643.85,43.43 635.99,45.97 629.00,45.97
             618.98,45.97 611.02,41.27 608.00,40.73
             604.38,40.09 598.82,43.13 595.00,44.28
             588.36,46.27 580.77,46.72 574.00,45.10
             567.09,43.45 561.75,41.03 556.00,36.84
             553.56,35.07 548.91,30.61 546.00,30.63
             542.86,30.64 537.91,35.96 535.00,37.90
             529.01,41.88 521.14,44.78 514.00,45.71
             506.02,46.75 497.11,44.29 490.00,40.73
             486.43,38.95 480.67,34.06 477.00,35.07
             477.00,35.07 467.00,40.73 467.00,40.73
             460.57,43.95 452.24,46.38 445.00,45.91
             439.01,45.52 432.35,43.41 427.00,40.73
             424.20,39.33 418.79,35.51 416.00,35.57
             413.24,35.64 407.19,40.19 404.00,41.68
             396.27,45.29 387.49,46.92 379.00,45.70
             372.10,44.71 364.68,41.55 359.00,37.56
             356.38,35.72 350.96,30.61 348.00,30.63
             344.86,30.64 339.91,35.96 337.00,37.90
             330.87,41.97 322.34,45.11 315.00,45.83
             307.42,46.58 298.74,44.10 292.00,40.73
             292.00,40.73 282.00,35.07 282.00,35.07
             278.36,34.07 274.19,37.94 271.00,39.69
             265.25,42.84 258.55,45.19 252.00,45.83
             244.42,46.58 235.74,44.10 229.00,40.73
             225.99,39.22 219.68,34.65 217.00,34.52
             213.59,34.36 208.25,38.94 205.00,40.68
             198.47,44.17 191.39,46.00 184.00,46.00
             175.50,46.00 167.17,43.50 160.00,38.91
             156.97,36.97 149.97,30.61 147.00,30.63
             143.87,30.64 139.64,35.33 137.00,37.21
             131.93,40.83 125.09,43.67 119.00,44.99
             109.38,47.07 100.82,45.43 92.00,41.22
             92.00,41.22 81.00,35.07 81.00,35.07
             77.38,34.07 68.96,40.43 65.00,42.13
             55.82,46.07 47.70,47.01 38.00,44.52
             27.11,41.72 17.35,35.16 10.79,26.00
             7.30,21.13 5.69,11.94 0.00,10.00 Z" />
</svg>
