<?xml version="1.0" encoding="UTF-8" standalone="no"?>
<!DOCTYPE svg PUBLIC "-//W3C//DTD SVG 20010904//EN"
              "http://www.w3.org/TR/2001/REC-SVG-20010904/DTD/svg10.dtd">

<svg xmlns="http://www.w3.org/2000/svg"
     viewBox="0 0 1920 1080">
  <path id="Selection"
        d="M 89.00,59.00
           C 90.49,61.91 94.25,67.03 94.19,70.00
             94.12,73.51 88.42,80.63 86.46,84.00
             82.55,90.76 80.10,99.19 80.00,107.00
             79.95,111.79 79.78,116.31 80.90,121.00
             80.90,121.00 84.64,134.00 84.64,134.00
             85.14,138.22 82.92,142.94 81.72,147.00
             80.00,152.79 79.94,155.04 80.00,161.00
             80.09,168.51 82.01,175.16 85.04,182.00
             86.55,185.41 90.04,190.47 90.09,194.00
             90.13,197.40 85.74,204.21 84.21,208.00
             80.91,216.14 79.29,224.19 80.17,233.00
             80.84,239.70 84.01,249.16 87.34,255.00
             89.17,258.22 94.06,263.72 94.18,267.00
             94.31,270.59 88.81,277.60 86.87,281.00
             82.86,288.03 80.10,295.85 80.00,304.00
             79.91,312.12 79.92,317.15 82.70,325.00
             84.16,329.12 88.55,336.38 88.46,340.00
             88.38,343.46 85.29,348.69 83.87,352.00
             81.40,357.78 80.07,363.72 80.00,370.00
             79.92,377.44 80.97,384.09 83.87,391.00
             85.32,394.43 89.94,402.04 90.06,405.00
             90.20,408.41 85.85,415.56 84.31,419.00
             81.77,424.68 80.07,431.78 80.00,438.00
             79.89,447.65 81.58,455.40 86.12,464.00
             88.10,467.75 94.26,475.48 94.19,479.00
             94.12,482.60 87.36,491.08 85.37,495.00
             80.60,504.41 79.88,511.72 80.00,522.00
             80.13,532.96 84.16,537.24 84.80,544.00
             85.58,552.10 79.82,556.09 80.00,572.00
             80.08,578.89 82.04,586.73 84.90,593.00
             86.49,596.49 90.03,601.25 90.09,605.00
             90.14,608.58 86.24,614.47 84.67,618.00
             81.79,624.45 80.08,630.91 80.00,638.00
             79.90,647.37 82.02,655.62 86.27,664.00
             88.12,667.64 94.12,675.03 94.30,678.00
             94.51,681.46 88.77,688.67 86.87,692.00
             82.80,699.14 80.10,707.75 80.00,716.00
             79.95,720.26 79.78,724.83 80.67,729.00
             81.53,733.07 83.79,738.19 83.82,742.00
             83.86,747.45 80.12,753.91 80.00,764.00
             79.91,772.67 81.16,777.94 84.45,786.00
             85.94,789.64 90.01,795.62 90.08,799.00
             90.16,802.46 85.88,809.53 84.31,813.00
             81.57,819.08 80.08,825.33 80.00,832.00
             79.89,841.75 81.74,849.32 86.26,858.00
             88.10,861.52 94.13,869.10 94.30,872.00
             94.51,875.46 88.77,882.67 86.87,886.00
             82.12,894.32 80.01,901.44 80.00,911.00
             79.99,917.43 79.96,920.64 81.75,927.00
             82.80,930.76 85.62,936.57 85.63,940.00
             85.64,943.13 83.05,949.69 82.02,953.00
             80.06,959.34 79.93,961.44 80.00,968.00
             80.09,975.38 81.99,982.33 85.12,989.00
             86.58,992.11 90.25,997.79 90.22,1001.00
             90.19,1005.33 85.29,1009.25 83.00,1019.00
             89.22,1018.43 94.77,1015.82 100.00,1012.45
             102.74,1010.70 106.71,1006.91 110.00,1007.12
             113.36,1007.34 120.59,1013.22 124.00,1015.10
             131.81,1019.40 139.18,1020.99 148.00,1021.00
             157.29,1021.01 161.06,1021.16 170.00,1017.55
             173.81,1016.01 181.96,1010.80 185.00,1010.78
             188.26,1010.75 197.25,1016.04 201.00,1017.55
             209.02,1020.78 214.55,1021.10 223.00,1021.00
             229.93,1020.91 236.70,1018.96 243.00,1016.14
             245.95,1014.81 251.74,1010.98 254.58,1011.11
             256.65,1011.21 263.56,1015.06 266.00,1016.14
             272.40,1018.96 278.97,1020.91 286.00,1021.00
             296.17,1021.12 302.70,1020.38 312.00,1015.73
             315.71,1013.87 324.92,1006.93 328.00,1007.07
             331.08,1007.22 337.07,1012.14 340.00,1013.93
             344.99,1016.99 353.17,1020.18 359.00,1020.83
             368.26,1021.87 377.16,1021.46 386.00,1018.30
             390.16,1016.82 398.60,1011.87 402.00,1011.91
             405.30,1011.96 411.49,1015.76 415.00,1017.18
             423.59,1020.64 426.94,1021.01 436.00,1021.00
             444.25,1020.99 449.43,1019.71 457.00,1016.33
             460.10,1014.95 466.39,1010.91 469.42,1011.15
             471.80,1011.33 478.46,1015.03 481.00,1016.22
             487.20,1019.13 493.12,1020.92 500.00,1021.00
             510.99,1021.13 517.95,1020.26 528.00,1015.19
             533.02,1012.66 539.55,1006.19 544.00,1007.30
             546.27,1007.87 552.55,1012.43 555.00,1013.94
             559.95,1016.99 565.31,1019.12 571.00,1020.33
             577.87,1021.79 587.13,1021.79 594.00,1020.33
             594.00,1020.33 608.00,1016.65 608.00,1016.65
             612.83,1016.65 618.50,1020.87 629.00,1021.00
             638.44,1021.11 642.98,1020.92 652.00,1017.39
             655.44,1016.04 663.98,1010.99 666.58,1011.11
             668.64,1011.21 675.57,1015.06 678.00,1016.14
             685.01,1019.24 690.27,1020.91 698.00,1021.00
             708.97,1021.12 715.03,1020.26 725.00,1015.24
             728.74,1013.36 736.92,1006.95 740.00,1007.07
             743.28,1007.20 750.51,1013.00 754.00,1014.88
             761.66,1019.00 769.34,1021.02 778.00,1021.68
             783.92,1022.13 794.45,1019.79 800.00,1017.55
             802.93,1016.37 808.29,1013.35 811.00,1013.00
             814.74,1012.50 819.46,1015.54 823.00,1016.99
             828.85,1019.37 834.66,1020.92 841.00,1021.00
             850.12,1021.10 854.29,1021.07 863.00,1017.55
             866.38,1016.18 874.98,1011.37 877.72,1011.13
             880.58,1010.88 887.14,1014.88 890.00,1016.22
             896.20,1019.13 902.12,1020.92 909.00,1021.00
             909.00,1021.00 913.00,1021.00 913.00,1021.00
             921.29,1020.99 929.63,1019.01 937.00,1015.11
             940.47,1013.28 948.08,1007.25 951.00,1007.07
             954.56,1006.84 961.42,1012.72 965.00,1014.69
             972.92,1019.04 983.92,1022.07 993.00,1021.49
             1008.63,1020.49 1010.33,1017.08 1016.00,1016.37
             1020.29,1015.83 1025.76,1018.38 1030.00,1019.57
             1035.85,1021.21 1038.09,1021.01 1044.00,1021.00
             1052.04,1020.99 1057.58,1019.75 1065.00,1016.57
             1068.12,1015.24 1074.80,1011.01 1077.58,1011.06
             1079.84,1011.10 1086.37,1014.97 1089.00,1016.14
             1095.38,1018.96 1101.99,1020.91 1109.00,1021.00
             1119.97,1021.13 1126.03,1020.26 1136.00,1015.24
             1139.74,1013.36 1147.92,1006.95 1151.00,1007.07
             1154.20,1007.20 1162.91,1013.94 1167.00,1015.88
             1178.28,1021.23 1183.99,1021.14 1196.00,1021.00
             1205.19,1020.89 1209.40,1017.28 1215.00,1017.35
             1220.53,1017.42 1224.16,1021.18 1240.00,1021.00
             1246.67,1020.92 1252.92,1019.43 1259.00,1016.69
             1262.22,1015.24 1268.89,1011.07 1272.00,1011.20
             1274.76,1011.32 1280.09,1014.83 1283.00,1016.14
             1289.30,1018.97 1296.07,1020.91 1303.00,1021.00
             1313.91,1021.12 1318.93,1020.64 1329.00,1015.74
             1332.67,1013.96 1342.25,1007.31 1345.00,1007.29
             1348.33,1007.27 1353.98,1011.76 1357.00,1013.55
             1362.32,1016.71 1368.90,1019.43 1375.00,1020.32
             1381.46,1021.71 1390.62,1021.63 1397.00,1020.32
             1400.99,1019.15 1409.90,1015.63 1413.00,1015.65
             1417.96,1015.69 1424.36,1020.86 1436.00,1021.00
             1445.36,1021.11 1450.06,1020.91 1459.00,1017.38
             1462.69,1015.93 1470.51,1010.94 1473.58,1011.11
             1475.81,1011.23 1483.39,1015.51 1486.00,1016.69
             1492.09,1019.43 1498.32,1020.92 1505.00,1021.00
             1515.97,1021.12 1522.03,1020.26 1532.00,1015.24
             1535.71,1013.37 1543.95,1006.93 1547.00,1007.07
             1550.16,1007.22 1557.55,1013.22 1561.00,1015.10
             1568.41,1019.13 1576.64,1021.05 1585.00,1021.68
             1593.19,1022.29 1602.54,1018.47 1608.00,1018.10
             1614.84,1017.63 1618.15,1021.07 1633.00,1021.00
             1640.62,1020.96 1647.06,1019.25 1654.00,1016.14
             1656.95,1014.81 1662.74,1010.98 1665.58,1011.11
             1667.86,1011.22 1676.90,1016.33 1680.00,1017.54
             1687.84,1020.60 1693.74,1021.09 1702.00,1021.00
             1710.57,1020.90 1718.59,1018.40 1726.00,1014.13
             1729.78,1011.94 1735.67,1006.22 1740.00,1007.30
             1742.38,1007.90 1749.25,1012.94 1752.00,1014.54
             1758.95,1018.56 1766.98,1020.90 1775.00,1021.00
             1780.85,1021.06 1786.30,1021.34 1792.00,1019.84
             1792.00,1019.84 1806.00,1015.53 1806.00,1015.53
             1810.29,1015.40 1821.36,1021.25 1826.96,1020.77
             1830.57,1020.45 1831.77,1017.94 1833.21,1015.00
             1836.26,1008.79 1837.92,1001.90 1838.00,995.00
             1838.11,985.35 1837.12,978.77 1832.73,970.00
             1830.79,966.13 1824.61,958.22 1824.50,955.00
             1824.37,951.23 1829.36,945.47 1831.32,942.00
             1835.11,935.32 1837.90,927.72 1838.00,920.00
             1838.05,915.45 1838.25,909.34 1837.33,905.00
             1837.33,905.00 1833.36,891.00 1833.36,891.00
             1832.86,886.77 1834.96,882.96 1836.09,879.00
             1837.93,872.57 1838.01,870.57 1838.00,864.00
             1837.99,856.49 1837.11,851.97 1834.13,845.00
             1834.13,845.00 1828.74,833.00 1828.74,833.00
             1827.94,828.71 1831.92,822.92 1833.69,819.00
             1836.43,812.91 1837.92,806.68 1838.00,800.00
             1838.00,800.00 1838.00,796.00 1838.00,796.00
             1837.89,787.19 1835.39,779.69 1831.21,772.00
             1829.47,768.80 1824.69,763.05 1824.52,760.00
             1824.32,756.32 1830.88,748.22 1832.88,744.00
             1838.03,733.14 1838.14,727.59 1838.00,716.00
             1837.89,706.81 1834.28,702.60 1834.35,697.00
             1834.42,691.56 1838.16,687.49 1838.00,673.00
             1837.92,666.72 1836.60,660.78 1834.13,655.00
             1834.13,655.00 1828.74,643.00 1828.74,643.00
             1827.97,638.89 1831.49,633.69 1833.22,630.00
             1836.13,623.80 1837.92,617.88 1838.00,611.00
             1838.12,600.77 1837.15,594.40 1832.68,585.00
             1830.76,580.95 1824.59,573.27 1824.50,570.00
             1824.41,566.61 1831.57,557.13 1833.51,553.00
             1838.33,542.73 1838.12,537.92 1838.00,527.00
             1837.86,515.36 1832.68,508.95 1832.65,504.00
             1832.63,500.89 1834.83,496.15 1835.80,493.00
             1837.83,486.35 1838.01,483.84 1838.00,477.00
             1837.99,469.49 1837.11,464.97 1834.13,458.00
             1834.13,458.00 1828.74,446.00 1828.74,446.00
             1827.92,441.59 1832.36,435.13 1834.13,431.00
             1837.61,422.87 1838.04,418.64 1838.00,410.00
             1837.96,401.16 1835.95,393.76 1831.69,386.00
             1829.80,382.56 1824.62,376.39 1824.50,373.00
             1824.36,369.21 1829.92,362.61 1831.96,359.00
             1836.03,351.78 1837.95,344.22 1838.49,336.00
             1839.11,326.39 1835.52,319.23 1835.10,313.00
             1834.60,305.77 1838.07,303.18 1838.00,289.00
             1837.97,281.67 1836.45,275.73 1833.57,269.00
             1832.17,265.73 1828.48,260.09 1828.43,257.00
             1828.38,253.59 1831.87,248.29 1833.33,245.00
             1836.09,238.82 1837.92,232.79 1838.00,226.00
             1838.11,216.42 1836.99,208.73 1832.63,200.00
             1830.59,195.93 1824.43,188.89 1824.62,185.00
             1824.79,181.30 1830.67,173.77 1832.68,170.00
             1836.54,162.74 1837.99,156.14 1838.00,148.00
             1838.01,141.58 1838.36,138.35 1836.57,132.00
             1835.61,128.58 1832.65,121.85 1832.65,119.00
             1832.65,114.39 1837.85,107.57 1838.00,95.00
             1838.10,86.37 1837.01,78.88 1833.21,71.00
             1831.78,68.02 1829.93,63.87 1825.98,64.28
             1819.86,64.91 1813.56,73.98 1808.00,72.70
             1805.00,72.01 1798.28,66.71 1795.00,64.90
             1788.30,61.21 1780.64,59.09 1773.00,59.00
             1763.10,58.89 1758.49,58.62 1749.00,62.45
             1745.19,63.99 1737.04,69.20 1734.00,69.22
             1730.74,69.25 1721.75,63.96 1718.00,62.45
             1709.98,59.22 1704.45,58.90 1696.00,59.00
             1689.07,59.09 1682.30,61.04 1676.00,63.86
             1673.05,65.19 1667.26,69.02 1664.42,68.89
             1662.35,68.79 1655.44,64.94 1653.00,63.86
             1646.60,61.04 1640.03,59.09 1633.00,59.00
             1622.83,58.88 1616.30,59.62 1607.00,64.27
             1603.29,66.13 1594.08,73.07 1591.00,72.93
             1587.99,72.78 1582.71,68.43 1580.00,66.70
             1574.85,63.41 1567.07,60.18 1561.00,59.30
             1551.66,57.94 1541.91,58.52 1533.00,61.70
             1528.84,63.18 1520.40,68.13 1517.00,68.09
             1513.74,68.04 1509.11,65.05 1506.00,63.67
             1499.82,60.91 1493.80,59.08 1487.00,59.00
             1477.08,58.89 1473.44,59.01 1464.00,62.82
             1460.83,64.10 1452.84,68.70 1450.42,68.86
             1447.47,69.06 1440.05,64.69 1437.00,63.31
             1430.48,60.37 1425.14,59.03 1418.00,59.00
             1407.23,58.95 1399.69,60.12 1390.00,65.32
             1385.86,67.55 1379.39,73.79 1375.00,72.70
             1372.73,72.13 1366.45,67.57 1364.00,66.06
             1359.05,63.01 1353.69,60.88 1348.00,59.67
             1341.13,58.21 1331.87,58.21 1325.00,59.67
             1325.00,59.67 1311.00,63.35 1311.00,63.35
             1306.17,63.35 1300.50,59.13 1290.00,59.00
             1290.00,59.00 1286.00,59.00 1286.00,59.00
             1277.96,59.01 1272.42,60.25 1265.00,63.43
             1261.89,64.76 1255.22,69.02 1252.42,68.89
             1250.36,68.79 1243.43,64.94 1241.00,63.86
             1233.99,60.76 1228.73,59.09 1221.00,59.00
             1210.03,58.88 1203.97,59.74 1194.00,64.76
             1190.26,66.64 1182.08,73.05 1179.00,72.93
             1175.72,72.80 1168.49,67.00 1165.00,65.12
             1157.34,61.00 1149.66,58.98 1141.00,58.32
             1135.08,57.87 1124.55,60.21 1119.00,62.45
             1115.73,63.77 1110.24,67.04 1107.00,67.09
             1103.97,67.13 1099.03,64.25 1096.00,63.01
             1090.15,60.63 1084.34,59.08 1078.00,59.00
             1068.88,58.90 1064.71,58.93 1056.00,62.45
             1052.44,63.89 1043.56,69.06 1040.42,68.89
             1038.23,68.77 1031.43,64.92 1029.00,63.78
             1022.80,60.87 1016.88,59.08 1010.00,59.00
             999.74,58.88 992.43,59.72 983.00,64.37
             979.21,66.24 970.90,72.75 968.00,72.93
             964.44,73.16 957.58,67.28 954.00,65.31
             945.64,60.72 938.42,59.11 929.00,58.51
             916.15,57.69 909.84,62.77 903.00,63.63
             898.71,64.17 893.24,61.62 889.00,60.43
             882.94,58.73 880.13,58.97 874.00,59.00
             866.38,59.04 859.94,60.75 853.00,63.86
             850.06,65.19 844.25,68.99 841.42,68.94
             839.16,68.90 832.63,65.03 830.00,63.86
             823.62,61.04 817.01,59.09 810.00,59.00
             810.00,59.00 806.00,59.00 806.00,59.00
             796.53,59.04 789.29,61.28 781.00,65.79
             777.56,67.66 771.33,73.06 768.00,72.93
             764.80,72.80 756.09,66.06 752.00,64.12
             740.72,58.77 735.01,58.86 723.00,59.00
             713.81,59.11 709.60,62.72 704.00,62.65
             698.47,62.58 694.84,58.82 679.00,59.00
             672.33,59.08 666.08,60.57 660.00,63.31
             656.78,64.76 650.11,68.93 647.00,68.80
             644.24,68.68 638.91,65.17 636.00,63.86
             629.70,61.03 622.93,59.09 616.00,59.00
             605.09,58.88 600.07,59.36 590.00,64.26
             586.33,66.04 576.75,72.69 574.00,72.71
             570.67,72.73 565.02,68.24 562.00,66.45
             555.84,62.79 548.17,59.76 541.00,59.07
             534.32,58.43 527.54,58.44 521.00,60.16
             517.32,61.12 509.04,64.37 506.00,64.35
             503.06,64.33 497.26,61.70 494.00,60.72
             487.59,58.80 485.50,58.99 479.00,59.00
             471.15,59.01 465.22,60.26 458.00,63.44
             454.93,64.79 449.10,68.61 446.28,68.87
             443.44,69.13 436.85,65.12 434.00,63.78
             427.51,60.74 421.18,59.09 414.00,59.00
             403.03,58.88 396.97,59.74 387.00,64.76
             383.29,66.63 375.05,73.07 372.00,72.93
             368.84,72.78 361.45,66.78 358.00,64.90
             350.59,60.87 342.36,58.95 334.00,58.32
             325.81,57.71 316.46,61.53 311.00,61.90
             304.16,62.37 300.85,58.93 286.00,59.00
             278.38,59.04 271.94,60.75 265.00,63.86
             262.05,65.19 256.26,69.02 253.42,68.89
             251.19,68.78 243.61,64.48 241.00,63.31
             235.32,60.77 228.22,59.08 222.00,59.00
             211.37,58.88 204.61,59.75 195.00,64.78
             190.69,67.04 183.32,73.78 179.00,72.70
             176.62,72.10 169.75,67.06 167.00,65.46
             160.05,61.44 152.02,59.10 144.00,59.00
             138.15,58.94 132.70,58.66 127.00,60.16
             127.00,60.16 113.00,64.47 113.00,64.47
             108.35,64.61 100.62,59.26 89.00,59.00 Z" />
</svg>
